G04 MADE WITH FRITZING*
G04 WWW.FRITZING.ORG*
G04 DOUBLE SIDED*
G04 HOLES PLATED*
G04 CONTOUR ON CENTER OF CONTOUR VECTOR*
%ASAXBY*%
%FSLAX23Y23*%
%MOIN*%
%OFA0B0*%
%SFA1.0B1.0*%
%ADD10C,0.075000*%
%ADD11C,0.078000*%
%LNCOPPER0*%
G90*
G70*
G54D10*
X255Y1401D03*
G54D11*
X1180Y1304D03*
X1180Y1204D03*
X1180Y1104D03*
X1180Y1004D03*
X1180Y904D03*
X1180Y804D03*
X1180Y704D03*
X1180Y604D03*
X1180Y504D03*
X1180Y404D03*
X1180Y304D03*
X1180Y204D03*
X580Y1304D03*
X580Y1204D03*
X580Y1104D03*
X580Y1004D03*
X580Y904D03*
X580Y804D03*
X580Y704D03*
X580Y604D03*
X580Y504D03*
X580Y404D03*
X580Y304D03*
X580Y204D03*
X732Y407D03*
X832Y407D03*
X932Y407D03*
X1032Y407D03*
X121Y1136D03*
X221Y1136D03*
X321Y1136D03*
X421Y1136D03*
X1342Y1136D03*
X1442Y1136D03*
X1542Y1136D03*
X1642Y1136D03*
X732Y998D03*
X832Y998D03*
X932Y998D03*
X1032Y998D03*
X732Y703D03*
X832Y703D03*
X932Y703D03*
X1032Y703D03*
X121Y545D03*
X221Y545D03*
X321Y545D03*
X421Y545D03*
X1342Y545D03*
X1442Y545D03*
X1542Y545D03*
X1642Y545D03*
X121Y841D03*
X221Y841D03*
X321Y841D03*
X421Y841D03*
X1342Y841D03*
X1442Y841D03*
X1542Y841D03*
X1642Y841D03*
X732Y1293D03*
X832Y1293D03*
X932Y1293D03*
X1032Y1293D03*
G36*
X40Y1497D02*
X40Y1459D01*
X1634Y1459D01*
X1634Y1457D01*
X1650Y1457D01*
X1650Y1455D01*
X1656Y1455D01*
X1656Y1453D01*
X1660Y1453D01*
X1660Y1451D01*
X1666Y1451D01*
X1666Y1449D01*
X1668Y1449D01*
X1668Y1447D01*
X1672Y1447D01*
X1672Y1445D01*
X1674Y1445D01*
X1674Y1443D01*
X1678Y1443D01*
X1678Y1441D01*
X1680Y1441D01*
X1680Y1439D01*
X1682Y1439D01*
X1682Y1437D01*
X1684Y1437D01*
X1684Y1435D01*
X1686Y1435D01*
X1686Y1433D01*
X1688Y1433D01*
X1688Y1429D01*
X1690Y1429D01*
X1690Y1427D01*
X1692Y1427D01*
X1692Y1423D01*
X1694Y1423D01*
X1694Y1419D01*
X1696Y1419D01*
X1696Y1415D01*
X1698Y1415D01*
X1698Y1409D01*
X1700Y1409D01*
X1700Y1401D01*
X1702Y1401D01*
X1702Y1377D01*
X1700Y1377D01*
X1700Y1369D01*
X1698Y1369D01*
X1698Y1363D01*
X1696Y1363D01*
X1696Y1359D01*
X1694Y1359D01*
X1694Y1355D01*
X1692Y1355D01*
X1692Y1351D01*
X1690Y1351D01*
X1690Y1349D01*
X1688Y1349D01*
X1688Y1345D01*
X1686Y1345D01*
X1686Y1343D01*
X1684Y1343D01*
X1684Y1341D01*
X1682Y1341D01*
X1682Y1339D01*
X1680Y1339D01*
X1680Y1337D01*
X1678Y1337D01*
X1678Y1335D01*
X1674Y1335D01*
X1674Y1333D01*
X1672Y1333D01*
X1672Y1331D01*
X1668Y1331D01*
X1668Y1329D01*
X1664Y1329D01*
X1664Y1327D01*
X1660Y1327D01*
X1660Y1325D01*
X1656Y1325D01*
X1656Y1323D01*
X1648Y1323D01*
X1648Y1321D01*
X1634Y1321D01*
X1634Y1319D01*
X1754Y1319D01*
X1754Y1497D01*
X40Y1497D01*
G37*
D02*
G36*
X40Y1459D02*
X40Y1319D01*
X136Y1319D01*
X136Y1321D01*
X122Y1321D01*
X122Y1323D01*
X114Y1323D01*
X114Y1325D01*
X110Y1325D01*
X110Y1327D01*
X106Y1327D01*
X106Y1329D01*
X102Y1329D01*
X102Y1331D01*
X98Y1331D01*
X98Y1333D01*
X96Y1333D01*
X96Y1335D01*
X92Y1335D01*
X92Y1337D01*
X90Y1337D01*
X90Y1339D01*
X88Y1339D01*
X88Y1341D01*
X86Y1341D01*
X86Y1343D01*
X84Y1343D01*
X84Y1347D01*
X82Y1347D01*
X82Y1349D01*
X80Y1349D01*
X80Y1351D01*
X78Y1351D01*
X78Y1355D01*
X76Y1355D01*
X76Y1359D01*
X74Y1359D01*
X74Y1363D01*
X72Y1363D01*
X72Y1369D01*
X70Y1369D01*
X70Y1379D01*
X68Y1379D01*
X68Y1399D01*
X70Y1399D01*
X70Y1409D01*
X72Y1409D01*
X72Y1415D01*
X74Y1415D01*
X74Y1419D01*
X76Y1419D01*
X76Y1423D01*
X78Y1423D01*
X78Y1427D01*
X80Y1427D01*
X80Y1429D01*
X82Y1429D01*
X82Y1431D01*
X84Y1431D01*
X84Y1435D01*
X86Y1435D01*
X86Y1437D01*
X88Y1437D01*
X88Y1439D01*
X90Y1439D01*
X90Y1441D01*
X92Y1441D01*
X92Y1443D01*
X96Y1443D01*
X96Y1445D01*
X98Y1445D01*
X98Y1447D01*
X102Y1447D01*
X102Y1449D01*
X106Y1449D01*
X106Y1451D01*
X110Y1451D01*
X110Y1453D01*
X114Y1453D01*
X114Y1455D01*
X122Y1455D01*
X122Y1457D01*
X136Y1457D01*
X136Y1459D01*
X40Y1459D01*
G37*
D02*
G36*
X138Y1459D02*
X138Y1457D01*
X154Y1457D01*
X154Y1455D01*
X160Y1455D01*
X160Y1453D01*
X164Y1453D01*
X164Y1451D01*
X170Y1451D01*
X170Y1449D01*
X172Y1449D01*
X172Y1447D01*
X176Y1447D01*
X176Y1445D01*
X178Y1445D01*
X178Y1443D01*
X182Y1443D01*
X182Y1441D01*
X184Y1441D01*
X184Y1439D01*
X186Y1439D01*
X186Y1437D01*
X188Y1437D01*
X188Y1435D01*
X190Y1435D01*
X190Y1431D01*
X192Y1431D01*
X192Y1429D01*
X194Y1429D01*
X194Y1427D01*
X196Y1427D01*
X196Y1423D01*
X198Y1423D01*
X198Y1419D01*
X200Y1419D01*
X200Y1415D01*
X202Y1415D01*
X202Y1409D01*
X204Y1409D01*
X204Y1401D01*
X206Y1401D01*
X206Y1377D01*
X204Y1377D01*
X204Y1369D01*
X202Y1369D01*
X202Y1363D01*
X200Y1363D01*
X200Y1359D01*
X198Y1359D01*
X198Y1355D01*
X196Y1355D01*
X196Y1353D01*
X1184Y1353D01*
X1184Y1351D01*
X1194Y1351D01*
X1194Y1349D01*
X1200Y1349D01*
X1200Y1347D01*
X1204Y1347D01*
X1204Y1345D01*
X1208Y1345D01*
X1208Y1343D01*
X1210Y1343D01*
X1210Y1341D01*
X1212Y1341D01*
X1212Y1339D01*
X1214Y1339D01*
X1214Y1337D01*
X1216Y1337D01*
X1216Y1335D01*
X1218Y1335D01*
X1218Y1333D01*
X1220Y1333D01*
X1220Y1331D01*
X1222Y1331D01*
X1222Y1327D01*
X1224Y1327D01*
X1224Y1323D01*
X1226Y1323D01*
X1226Y1319D01*
X1632Y1319D01*
X1632Y1321D01*
X1618Y1321D01*
X1618Y1323D01*
X1610Y1323D01*
X1610Y1325D01*
X1606Y1325D01*
X1606Y1327D01*
X1602Y1327D01*
X1602Y1329D01*
X1598Y1329D01*
X1598Y1331D01*
X1594Y1331D01*
X1594Y1333D01*
X1592Y1333D01*
X1592Y1335D01*
X1588Y1335D01*
X1588Y1337D01*
X1586Y1337D01*
X1586Y1339D01*
X1584Y1339D01*
X1584Y1341D01*
X1582Y1341D01*
X1582Y1343D01*
X1580Y1343D01*
X1580Y1347D01*
X1578Y1347D01*
X1578Y1349D01*
X1576Y1349D01*
X1576Y1353D01*
X1574Y1353D01*
X1574Y1355D01*
X1572Y1355D01*
X1572Y1359D01*
X1570Y1359D01*
X1570Y1363D01*
X1568Y1363D01*
X1568Y1369D01*
X1566Y1369D01*
X1566Y1379D01*
X1564Y1379D01*
X1564Y1399D01*
X1566Y1399D01*
X1566Y1409D01*
X1568Y1409D01*
X1568Y1415D01*
X1570Y1415D01*
X1570Y1419D01*
X1572Y1419D01*
X1572Y1423D01*
X1574Y1423D01*
X1574Y1427D01*
X1576Y1427D01*
X1576Y1429D01*
X1578Y1429D01*
X1578Y1431D01*
X1580Y1431D01*
X1580Y1435D01*
X1582Y1435D01*
X1582Y1437D01*
X1584Y1437D01*
X1584Y1439D01*
X1586Y1439D01*
X1586Y1441D01*
X1588Y1441D01*
X1588Y1443D01*
X1592Y1443D01*
X1592Y1445D01*
X1594Y1445D01*
X1594Y1447D01*
X1598Y1447D01*
X1598Y1449D01*
X1602Y1449D01*
X1602Y1451D01*
X1606Y1451D01*
X1606Y1453D01*
X1610Y1453D01*
X1610Y1455D01*
X1618Y1455D01*
X1618Y1457D01*
X1632Y1457D01*
X1632Y1459D01*
X138Y1459D01*
G37*
D02*
G36*
X196Y1353D02*
X196Y1351D01*
X194Y1351D01*
X194Y1349D01*
X192Y1349D01*
X192Y1347D01*
X190Y1347D01*
X190Y1343D01*
X188Y1343D01*
X188Y1341D01*
X186Y1341D01*
X186Y1339D01*
X184Y1339D01*
X184Y1337D01*
X182Y1337D01*
X182Y1335D01*
X178Y1335D01*
X178Y1333D01*
X176Y1333D01*
X176Y1331D01*
X172Y1331D01*
X172Y1329D01*
X168Y1329D01*
X168Y1327D01*
X164Y1327D01*
X164Y1325D01*
X160Y1325D01*
X160Y1323D01*
X152Y1323D01*
X152Y1321D01*
X138Y1321D01*
X138Y1319D01*
X534Y1319D01*
X534Y1321D01*
X536Y1321D01*
X536Y1325D01*
X538Y1325D01*
X538Y1329D01*
X540Y1329D01*
X540Y1333D01*
X542Y1333D01*
X542Y1335D01*
X544Y1335D01*
X544Y1337D01*
X546Y1337D01*
X546Y1339D01*
X548Y1339D01*
X548Y1341D01*
X550Y1341D01*
X550Y1343D01*
X554Y1343D01*
X554Y1345D01*
X558Y1345D01*
X558Y1347D01*
X560Y1347D01*
X560Y1349D01*
X566Y1349D01*
X566Y1351D01*
X576Y1351D01*
X576Y1353D01*
X196Y1353D01*
G37*
D02*
G36*
X584Y1353D02*
X584Y1351D01*
X594Y1351D01*
X594Y1349D01*
X600Y1349D01*
X600Y1347D01*
X604Y1347D01*
X604Y1345D01*
X608Y1345D01*
X608Y1343D01*
X610Y1343D01*
X610Y1341D01*
X1044Y1341D01*
X1044Y1339D01*
X1050Y1339D01*
X1050Y1337D01*
X1054Y1337D01*
X1054Y1335D01*
X1058Y1335D01*
X1058Y1333D01*
X1060Y1333D01*
X1060Y1331D01*
X1064Y1331D01*
X1064Y1329D01*
X1066Y1329D01*
X1066Y1327D01*
X1068Y1327D01*
X1068Y1325D01*
X1070Y1325D01*
X1070Y1321D01*
X1072Y1321D01*
X1072Y1319D01*
X1074Y1319D01*
X1074Y1315D01*
X1076Y1315D01*
X1076Y1311D01*
X1078Y1311D01*
X1078Y1305D01*
X1080Y1305D01*
X1080Y1281D01*
X1078Y1281D01*
X1078Y1275D01*
X1076Y1275D01*
X1076Y1271D01*
X1074Y1271D01*
X1074Y1267D01*
X1072Y1267D01*
X1072Y1265D01*
X1070Y1265D01*
X1070Y1261D01*
X1068Y1261D01*
X1068Y1259D01*
X1066Y1259D01*
X1066Y1257D01*
X1064Y1257D01*
X1064Y1255D01*
X1060Y1255D01*
X1060Y1253D01*
X1058Y1253D01*
X1058Y1251D01*
X1054Y1251D01*
X1054Y1249D01*
X1050Y1249D01*
X1050Y1247D01*
X1044Y1247D01*
X1044Y1245D01*
X1154Y1245D01*
X1154Y1263D01*
X1152Y1263D01*
X1152Y1265D01*
X1148Y1265D01*
X1148Y1267D01*
X1146Y1267D01*
X1146Y1269D01*
X1144Y1269D01*
X1144Y1271D01*
X1142Y1271D01*
X1142Y1275D01*
X1140Y1275D01*
X1140Y1277D01*
X1138Y1277D01*
X1138Y1281D01*
X1136Y1281D01*
X1136Y1285D01*
X1134Y1285D01*
X1134Y1291D01*
X1132Y1291D01*
X1132Y1315D01*
X1134Y1315D01*
X1134Y1321D01*
X1136Y1321D01*
X1136Y1325D01*
X1138Y1325D01*
X1138Y1329D01*
X1140Y1329D01*
X1140Y1333D01*
X1142Y1333D01*
X1142Y1335D01*
X1144Y1335D01*
X1144Y1337D01*
X1146Y1337D01*
X1146Y1339D01*
X1148Y1339D01*
X1148Y1341D01*
X1150Y1341D01*
X1150Y1343D01*
X1154Y1343D01*
X1154Y1345D01*
X1158Y1345D01*
X1158Y1347D01*
X1160Y1347D01*
X1160Y1349D01*
X1166Y1349D01*
X1166Y1351D01*
X1176Y1351D01*
X1176Y1353D01*
X584Y1353D01*
G37*
D02*
G36*
X612Y1341D02*
X612Y1339D01*
X614Y1339D01*
X614Y1337D01*
X616Y1337D01*
X616Y1335D01*
X618Y1335D01*
X618Y1333D01*
X620Y1333D01*
X620Y1331D01*
X622Y1331D01*
X622Y1327D01*
X624Y1327D01*
X624Y1323D01*
X626Y1323D01*
X626Y1317D01*
X628Y1317D01*
X628Y1309D01*
X630Y1309D01*
X630Y1299D01*
X628Y1299D01*
X628Y1289D01*
X626Y1289D01*
X626Y1283D01*
X624Y1283D01*
X624Y1279D01*
X622Y1279D01*
X622Y1277D01*
X620Y1277D01*
X620Y1273D01*
X618Y1273D01*
X618Y1271D01*
X616Y1271D01*
X616Y1269D01*
X614Y1269D01*
X614Y1267D01*
X612Y1267D01*
X612Y1265D01*
X610Y1265D01*
X610Y1263D01*
X608Y1263D01*
X608Y1245D01*
X718Y1245D01*
X718Y1247D01*
X712Y1247D01*
X712Y1249D01*
X708Y1249D01*
X708Y1251D01*
X704Y1251D01*
X704Y1253D01*
X702Y1253D01*
X702Y1255D01*
X700Y1255D01*
X700Y1257D01*
X698Y1257D01*
X698Y1259D01*
X696Y1259D01*
X696Y1261D01*
X694Y1261D01*
X694Y1263D01*
X692Y1263D01*
X692Y1265D01*
X690Y1265D01*
X690Y1269D01*
X688Y1269D01*
X688Y1273D01*
X686Y1273D01*
X686Y1279D01*
X684Y1279D01*
X684Y1287D01*
X682Y1287D01*
X682Y1299D01*
X684Y1299D01*
X684Y1307D01*
X686Y1307D01*
X686Y1313D01*
X688Y1313D01*
X688Y1317D01*
X690Y1317D01*
X690Y1321D01*
X692Y1321D01*
X692Y1323D01*
X694Y1323D01*
X694Y1325D01*
X696Y1325D01*
X696Y1327D01*
X698Y1327D01*
X698Y1329D01*
X700Y1329D01*
X700Y1331D01*
X702Y1331D01*
X702Y1333D01*
X706Y1333D01*
X706Y1335D01*
X708Y1335D01*
X708Y1337D01*
X712Y1337D01*
X712Y1339D01*
X718Y1339D01*
X718Y1341D01*
X612Y1341D01*
G37*
D02*
G36*
X744Y1341D02*
X744Y1339D01*
X750Y1339D01*
X750Y1337D01*
X754Y1337D01*
X754Y1335D01*
X758Y1335D01*
X758Y1333D01*
X760Y1333D01*
X760Y1331D01*
X764Y1331D01*
X764Y1329D01*
X766Y1329D01*
X766Y1327D01*
X768Y1327D01*
X768Y1325D01*
X770Y1325D01*
X770Y1321D01*
X792Y1321D01*
X792Y1323D01*
X794Y1323D01*
X794Y1325D01*
X796Y1325D01*
X796Y1327D01*
X798Y1327D01*
X798Y1329D01*
X800Y1329D01*
X800Y1331D01*
X802Y1331D01*
X802Y1333D01*
X806Y1333D01*
X806Y1335D01*
X808Y1335D01*
X808Y1337D01*
X812Y1337D01*
X812Y1339D01*
X818Y1339D01*
X818Y1341D01*
X744Y1341D01*
G37*
D02*
G36*
X844Y1341D02*
X844Y1339D01*
X850Y1339D01*
X850Y1337D01*
X854Y1337D01*
X854Y1335D01*
X858Y1335D01*
X858Y1333D01*
X860Y1333D01*
X860Y1331D01*
X864Y1331D01*
X864Y1329D01*
X866Y1329D01*
X866Y1327D01*
X868Y1327D01*
X868Y1325D01*
X870Y1325D01*
X870Y1321D01*
X892Y1321D01*
X892Y1323D01*
X894Y1323D01*
X894Y1325D01*
X896Y1325D01*
X896Y1327D01*
X898Y1327D01*
X898Y1329D01*
X900Y1329D01*
X900Y1331D01*
X902Y1331D01*
X902Y1333D01*
X906Y1333D01*
X906Y1335D01*
X908Y1335D01*
X908Y1337D01*
X912Y1337D01*
X912Y1339D01*
X918Y1339D01*
X918Y1341D01*
X844Y1341D01*
G37*
D02*
G36*
X944Y1341D02*
X944Y1339D01*
X950Y1339D01*
X950Y1337D01*
X954Y1337D01*
X954Y1335D01*
X958Y1335D01*
X958Y1333D01*
X960Y1333D01*
X960Y1331D01*
X964Y1331D01*
X964Y1329D01*
X966Y1329D01*
X966Y1327D01*
X968Y1327D01*
X968Y1325D01*
X970Y1325D01*
X970Y1321D01*
X992Y1321D01*
X992Y1323D01*
X994Y1323D01*
X994Y1325D01*
X996Y1325D01*
X996Y1327D01*
X998Y1327D01*
X998Y1329D01*
X1000Y1329D01*
X1000Y1331D01*
X1002Y1331D01*
X1002Y1333D01*
X1006Y1333D01*
X1006Y1335D01*
X1008Y1335D01*
X1008Y1337D01*
X1012Y1337D01*
X1012Y1339D01*
X1018Y1339D01*
X1018Y1341D01*
X944Y1341D01*
G37*
D02*
G36*
X40Y1319D02*
X40Y1317D01*
X534Y1317D01*
X534Y1319D01*
X40Y1319D01*
G37*
D02*
G36*
X40Y1319D02*
X40Y1317D01*
X534Y1317D01*
X534Y1319D01*
X40Y1319D01*
G37*
D02*
G36*
X1226Y1319D02*
X1226Y1317D01*
X1754Y1317D01*
X1754Y1319D01*
X1226Y1319D01*
G37*
D02*
G36*
X1226Y1319D02*
X1226Y1317D01*
X1754Y1317D01*
X1754Y1319D01*
X1226Y1319D01*
G37*
D02*
G36*
X40Y1317D02*
X40Y1185D01*
X428Y1185D01*
X428Y1183D01*
X436Y1183D01*
X436Y1181D01*
X442Y1181D01*
X442Y1179D01*
X446Y1179D01*
X446Y1177D01*
X448Y1177D01*
X448Y1175D01*
X452Y1175D01*
X452Y1173D01*
X454Y1173D01*
X454Y1171D01*
X456Y1171D01*
X456Y1169D01*
X458Y1169D01*
X458Y1167D01*
X460Y1167D01*
X460Y1163D01*
X462Y1163D01*
X462Y1161D01*
X464Y1161D01*
X464Y1157D01*
X466Y1157D01*
X466Y1153D01*
X468Y1153D01*
X468Y1145D01*
X470Y1145D01*
X470Y1125D01*
X468Y1125D01*
X468Y1119D01*
X466Y1119D01*
X466Y1113D01*
X464Y1113D01*
X464Y1111D01*
X462Y1111D01*
X462Y1107D01*
X460Y1107D01*
X460Y1105D01*
X458Y1105D01*
X458Y1103D01*
X456Y1103D01*
X456Y1101D01*
X454Y1101D01*
X454Y1099D01*
X452Y1099D01*
X452Y1097D01*
X450Y1097D01*
X450Y1095D01*
X446Y1095D01*
X446Y1093D01*
X444Y1093D01*
X444Y1091D01*
X440Y1091D01*
X440Y1089D01*
X432Y1089D01*
X432Y1087D01*
X534Y1087D01*
X534Y1091D01*
X532Y1091D01*
X532Y1115D01*
X534Y1115D01*
X534Y1121D01*
X536Y1121D01*
X536Y1125D01*
X538Y1125D01*
X538Y1129D01*
X540Y1129D01*
X540Y1133D01*
X542Y1133D01*
X542Y1135D01*
X544Y1135D01*
X544Y1137D01*
X546Y1137D01*
X546Y1139D01*
X548Y1139D01*
X548Y1141D01*
X550Y1141D01*
X550Y1143D01*
X554Y1143D01*
X554Y1163D01*
X552Y1163D01*
X552Y1165D01*
X548Y1165D01*
X548Y1167D01*
X546Y1167D01*
X546Y1169D01*
X544Y1169D01*
X544Y1171D01*
X542Y1171D01*
X542Y1175D01*
X540Y1175D01*
X540Y1177D01*
X538Y1177D01*
X538Y1181D01*
X536Y1181D01*
X536Y1185D01*
X534Y1185D01*
X534Y1191D01*
X532Y1191D01*
X532Y1215D01*
X534Y1215D01*
X534Y1221D01*
X536Y1221D01*
X536Y1225D01*
X538Y1225D01*
X538Y1229D01*
X540Y1229D01*
X540Y1233D01*
X542Y1233D01*
X542Y1235D01*
X544Y1235D01*
X544Y1237D01*
X546Y1237D01*
X546Y1239D01*
X548Y1239D01*
X548Y1241D01*
X550Y1241D01*
X550Y1243D01*
X554Y1243D01*
X554Y1263D01*
X552Y1263D01*
X552Y1265D01*
X548Y1265D01*
X548Y1267D01*
X546Y1267D01*
X546Y1269D01*
X544Y1269D01*
X544Y1271D01*
X542Y1271D01*
X542Y1275D01*
X540Y1275D01*
X540Y1277D01*
X538Y1277D01*
X538Y1281D01*
X536Y1281D01*
X536Y1285D01*
X534Y1285D01*
X534Y1291D01*
X532Y1291D01*
X532Y1315D01*
X534Y1315D01*
X534Y1317D01*
X40Y1317D01*
G37*
D02*
G36*
X1228Y1317D02*
X1228Y1309D01*
X1230Y1309D01*
X1230Y1299D01*
X1228Y1299D01*
X1228Y1289D01*
X1226Y1289D01*
X1226Y1283D01*
X1224Y1283D01*
X1224Y1279D01*
X1222Y1279D01*
X1222Y1277D01*
X1220Y1277D01*
X1220Y1273D01*
X1218Y1273D01*
X1218Y1271D01*
X1216Y1271D01*
X1216Y1269D01*
X1214Y1269D01*
X1214Y1267D01*
X1212Y1267D01*
X1212Y1265D01*
X1210Y1265D01*
X1210Y1263D01*
X1208Y1263D01*
X1208Y1243D01*
X1210Y1243D01*
X1210Y1241D01*
X1212Y1241D01*
X1212Y1239D01*
X1214Y1239D01*
X1214Y1237D01*
X1216Y1237D01*
X1216Y1235D01*
X1218Y1235D01*
X1218Y1233D01*
X1220Y1233D01*
X1220Y1231D01*
X1222Y1231D01*
X1222Y1227D01*
X1224Y1227D01*
X1224Y1223D01*
X1226Y1223D01*
X1226Y1217D01*
X1228Y1217D01*
X1228Y1209D01*
X1230Y1209D01*
X1230Y1199D01*
X1228Y1199D01*
X1228Y1189D01*
X1226Y1189D01*
X1226Y1185D01*
X1648Y1185D01*
X1648Y1183D01*
X1656Y1183D01*
X1656Y1181D01*
X1662Y1181D01*
X1662Y1179D01*
X1666Y1179D01*
X1666Y1177D01*
X1670Y1177D01*
X1670Y1175D01*
X1672Y1175D01*
X1672Y1173D01*
X1674Y1173D01*
X1674Y1171D01*
X1676Y1171D01*
X1676Y1169D01*
X1678Y1169D01*
X1678Y1167D01*
X1680Y1167D01*
X1680Y1165D01*
X1682Y1165D01*
X1682Y1161D01*
X1684Y1161D01*
X1684Y1157D01*
X1686Y1157D01*
X1686Y1155D01*
X1688Y1155D01*
X1688Y1147D01*
X1690Y1147D01*
X1690Y1123D01*
X1688Y1123D01*
X1688Y1117D01*
X1686Y1117D01*
X1686Y1113D01*
X1684Y1113D01*
X1684Y1109D01*
X1682Y1109D01*
X1682Y1107D01*
X1680Y1107D01*
X1680Y1105D01*
X1678Y1105D01*
X1678Y1101D01*
X1676Y1101D01*
X1676Y1099D01*
X1672Y1099D01*
X1672Y1097D01*
X1670Y1097D01*
X1670Y1095D01*
X1668Y1095D01*
X1668Y1093D01*
X1664Y1093D01*
X1664Y1091D01*
X1660Y1091D01*
X1660Y1089D01*
X1652Y1089D01*
X1652Y1087D01*
X1754Y1087D01*
X1754Y1317D01*
X1228Y1317D01*
G37*
D02*
G36*
X770Y1265D02*
X770Y1261D01*
X768Y1261D01*
X768Y1259D01*
X766Y1259D01*
X766Y1257D01*
X764Y1257D01*
X764Y1255D01*
X760Y1255D01*
X760Y1253D01*
X758Y1253D01*
X758Y1251D01*
X754Y1251D01*
X754Y1249D01*
X750Y1249D01*
X750Y1247D01*
X744Y1247D01*
X744Y1245D01*
X818Y1245D01*
X818Y1247D01*
X812Y1247D01*
X812Y1249D01*
X808Y1249D01*
X808Y1251D01*
X804Y1251D01*
X804Y1253D01*
X802Y1253D01*
X802Y1255D01*
X800Y1255D01*
X800Y1257D01*
X798Y1257D01*
X798Y1259D01*
X796Y1259D01*
X796Y1261D01*
X794Y1261D01*
X794Y1263D01*
X792Y1263D01*
X792Y1265D01*
X770Y1265D01*
G37*
D02*
G36*
X870Y1265D02*
X870Y1261D01*
X868Y1261D01*
X868Y1259D01*
X866Y1259D01*
X866Y1257D01*
X864Y1257D01*
X864Y1255D01*
X860Y1255D01*
X860Y1253D01*
X858Y1253D01*
X858Y1251D01*
X854Y1251D01*
X854Y1249D01*
X850Y1249D01*
X850Y1247D01*
X844Y1247D01*
X844Y1245D01*
X918Y1245D01*
X918Y1247D01*
X912Y1247D01*
X912Y1249D01*
X908Y1249D01*
X908Y1251D01*
X904Y1251D01*
X904Y1253D01*
X902Y1253D01*
X902Y1255D01*
X900Y1255D01*
X900Y1257D01*
X898Y1257D01*
X898Y1259D01*
X896Y1259D01*
X896Y1261D01*
X894Y1261D01*
X894Y1263D01*
X892Y1263D01*
X892Y1265D01*
X870Y1265D01*
G37*
D02*
G36*
X970Y1265D02*
X970Y1261D01*
X968Y1261D01*
X968Y1259D01*
X966Y1259D01*
X966Y1257D01*
X964Y1257D01*
X964Y1255D01*
X960Y1255D01*
X960Y1253D01*
X958Y1253D01*
X958Y1251D01*
X954Y1251D01*
X954Y1249D01*
X950Y1249D01*
X950Y1247D01*
X944Y1247D01*
X944Y1245D01*
X1018Y1245D01*
X1018Y1247D01*
X1012Y1247D01*
X1012Y1249D01*
X1008Y1249D01*
X1008Y1251D01*
X1004Y1251D01*
X1004Y1253D01*
X1002Y1253D01*
X1002Y1255D01*
X1000Y1255D01*
X1000Y1257D01*
X998Y1257D01*
X998Y1259D01*
X996Y1259D01*
X996Y1261D01*
X994Y1261D01*
X994Y1263D01*
X992Y1263D01*
X992Y1265D01*
X970Y1265D01*
G37*
D02*
G36*
X608Y1245D02*
X608Y1243D01*
X1154Y1243D01*
X1154Y1245D01*
X608Y1245D01*
G37*
D02*
G36*
X608Y1245D02*
X608Y1243D01*
X1154Y1243D01*
X1154Y1245D01*
X608Y1245D01*
G37*
D02*
G36*
X608Y1245D02*
X608Y1243D01*
X1154Y1243D01*
X1154Y1245D01*
X608Y1245D01*
G37*
D02*
G36*
X608Y1245D02*
X608Y1243D01*
X1154Y1243D01*
X1154Y1245D01*
X608Y1245D01*
G37*
D02*
G36*
X608Y1245D02*
X608Y1243D01*
X1154Y1243D01*
X1154Y1245D01*
X608Y1245D01*
G37*
D02*
G36*
X610Y1243D02*
X610Y1241D01*
X612Y1241D01*
X612Y1239D01*
X614Y1239D01*
X614Y1237D01*
X616Y1237D01*
X616Y1235D01*
X618Y1235D01*
X618Y1233D01*
X620Y1233D01*
X620Y1231D01*
X622Y1231D01*
X622Y1227D01*
X624Y1227D01*
X624Y1223D01*
X626Y1223D01*
X626Y1217D01*
X628Y1217D01*
X628Y1209D01*
X630Y1209D01*
X630Y1199D01*
X628Y1199D01*
X628Y1189D01*
X626Y1189D01*
X626Y1183D01*
X624Y1183D01*
X624Y1179D01*
X622Y1179D01*
X622Y1177D01*
X620Y1177D01*
X620Y1173D01*
X618Y1173D01*
X618Y1171D01*
X616Y1171D01*
X616Y1169D01*
X614Y1169D01*
X614Y1167D01*
X612Y1167D01*
X612Y1165D01*
X610Y1165D01*
X610Y1163D01*
X608Y1163D01*
X608Y1143D01*
X610Y1143D01*
X610Y1141D01*
X612Y1141D01*
X612Y1139D01*
X614Y1139D01*
X614Y1137D01*
X616Y1137D01*
X616Y1135D01*
X618Y1135D01*
X618Y1133D01*
X620Y1133D01*
X620Y1131D01*
X622Y1131D01*
X622Y1127D01*
X624Y1127D01*
X624Y1123D01*
X626Y1123D01*
X626Y1117D01*
X628Y1117D01*
X628Y1109D01*
X630Y1109D01*
X630Y1099D01*
X628Y1099D01*
X628Y1089D01*
X626Y1089D01*
X626Y1083D01*
X624Y1083D01*
X624Y1079D01*
X622Y1079D01*
X622Y1077D01*
X620Y1077D01*
X620Y1073D01*
X618Y1073D01*
X618Y1071D01*
X616Y1071D01*
X616Y1069D01*
X614Y1069D01*
X614Y1067D01*
X612Y1067D01*
X612Y1065D01*
X610Y1065D01*
X610Y1063D01*
X608Y1063D01*
X608Y1047D01*
X1038Y1047D01*
X1038Y1045D01*
X1046Y1045D01*
X1046Y1043D01*
X1052Y1043D01*
X1052Y1041D01*
X1056Y1041D01*
X1056Y1039D01*
X1060Y1039D01*
X1060Y1037D01*
X1062Y1037D01*
X1062Y1035D01*
X1064Y1035D01*
X1064Y1033D01*
X1066Y1033D01*
X1066Y1031D01*
X1068Y1031D01*
X1068Y1029D01*
X1070Y1029D01*
X1070Y1027D01*
X1072Y1027D01*
X1072Y1023D01*
X1074Y1023D01*
X1074Y1019D01*
X1076Y1019D01*
X1076Y1015D01*
X1078Y1015D01*
X1078Y1009D01*
X1080Y1009D01*
X1080Y987D01*
X1078Y987D01*
X1078Y979D01*
X1076Y979D01*
X1076Y975D01*
X1074Y975D01*
X1074Y973D01*
X1072Y973D01*
X1072Y969D01*
X1070Y969D01*
X1070Y967D01*
X1068Y967D01*
X1068Y965D01*
X1066Y965D01*
X1066Y963D01*
X1064Y963D01*
X1064Y961D01*
X1062Y961D01*
X1062Y959D01*
X1060Y959D01*
X1060Y957D01*
X1056Y957D01*
X1056Y955D01*
X1054Y955D01*
X1054Y953D01*
X1048Y953D01*
X1048Y951D01*
X1042Y951D01*
X1042Y949D01*
X1154Y949D01*
X1154Y963D01*
X1152Y963D01*
X1152Y965D01*
X1148Y965D01*
X1148Y967D01*
X1146Y967D01*
X1146Y969D01*
X1144Y969D01*
X1144Y971D01*
X1142Y971D01*
X1142Y975D01*
X1140Y975D01*
X1140Y977D01*
X1138Y977D01*
X1138Y981D01*
X1136Y981D01*
X1136Y985D01*
X1134Y985D01*
X1134Y991D01*
X1132Y991D01*
X1132Y1015D01*
X1134Y1015D01*
X1134Y1021D01*
X1136Y1021D01*
X1136Y1025D01*
X1138Y1025D01*
X1138Y1029D01*
X1140Y1029D01*
X1140Y1033D01*
X1142Y1033D01*
X1142Y1035D01*
X1144Y1035D01*
X1144Y1037D01*
X1146Y1037D01*
X1146Y1039D01*
X1148Y1039D01*
X1148Y1041D01*
X1150Y1041D01*
X1150Y1043D01*
X1154Y1043D01*
X1154Y1063D01*
X1152Y1063D01*
X1152Y1065D01*
X1148Y1065D01*
X1148Y1067D01*
X1146Y1067D01*
X1146Y1069D01*
X1144Y1069D01*
X1144Y1071D01*
X1142Y1071D01*
X1142Y1075D01*
X1140Y1075D01*
X1140Y1077D01*
X1138Y1077D01*
X1138Y1081D01*
X1136Y1081D01*
X1136Y1085D01*
X1134Y1085D01*
X1134Y1091D01*
X1132Y1091D01*
X1132Y1115D01*
X1134Y1115D01*
X1134Y1121D01*
X1136Y1121D01*
X1136Y1125D01*
X1138Y1125D01*
X1138Y1129D01*
X1140Y1129D01*
X1140Y1133D01*
X1142Y1133D01*
X1142Y1135D01*
X1144Y1135D01*
X1144Y1137D01*
X1146Y1137D01*
X1146Y1139D01*
X1148Y1139D01*
X1148Y1141D01*
X1150Y1141D01*
X1150Y1143D01*
X1154Y1143D01*
X1154Y1163D01*
X1152Y1163D01*
X1152Y1165D01*
X1148Y1165D01*
X1148Y1167D01*
X1146Y1167D01*
X1146Y1169D01*
X1144Y1169D01*
X1144Y1171D01*
X1142Y1171D01*
X1142Y1175D01*
X1140Y1175D01*
X1140Y1177D01*
X1138Y1177D01*
X1138Y1181D01*
X1136Y1181D01*
X1136Y1185D01*
X1134Y1185D01*
X1134Y1191D01*
X1132Y1191D01*
X1132Y1215D01*
X1134Y1215D01*
X1134Y1221D01*
X1136Y1221D01*
X1136Y1225D01*
X1138Y1225D01*
X1138Y1229D01*
X1140Y1229D01*
X1140Y1233D01*
X1142Y1233D01*
X1142Y1235D01*
X1144Y1235D01*
X1144Y1237D01*
X1146Y1237D01*
X1146Y1239D01*
X1148Y1239D01*
X1148Y1241D01*
X1150Y1241D01*
X1150Y1243D01*
X610Y1243D01*
G37*
D02*
G36*
X40Y1185D02*
X40Y1087D01*
X110Y1087D01*
X110Y1089D01*
X104Y1089D01*
X104Y1091D01*
X100Y1091D01*
X100Y1093D01*
X96Y1093D01*
X96Y1095D01*
X92Y1095D01*
X92Y1097D01*
X90Y1097D01*
X90Y1099D01*
X88Y1099D01*
X88Y1101D01*
X86Y1101D01*
X86Y1103D01*
X84Y1103D01*
X84Y1105D01*
X82Y1105D01*
X82Y1107D01*
X80Y1107D01*
X80Y1111D01*
X78Y1111D01*
X78Y1115D01*
X76Y1115D01*
X76Y1121D01*
X74Y1121D01*
X74Y1127D01*
X72Y1127D01*
X72Y1143D01*
X74Y1143D01*
X74Y1151D01*
X76Y1151D01*
X76Y1157D01*
X78Y1157D01*
X78Y1159D01*
X80Y1159D01*
X80Y1163D01*
X82Y1163D01*
X82Y1165D01*
X84Y1165D01*
X84Y1169D01*
X86Y1169D01*
X86Y1171D01*
X88Y1171D01*
X88Y1173D01*
X92Y1173D01*
X92Y1175D01*
X94Y1175D01*
X94Y1177D01*
X98Y1177D01*
X98Y1179D01*
X102Y1179D01*
X102Y1181D01*
X106Y1181D01*
X106Y1183D01*
X116Y1183D01*
X116Y1185D01*
X40Y1185D01*
G37*
D02*
G36*
X128Y1185D02*
X128Y1183D01*
X136Y1183D01*
X136Y1181D01*
X142Y1181D01*
X142Y1179D01*
X146Y1179D01*
X146Y1177D01*
X148Y1177D01*
X148Y1175D01*
X152Y1175D01*
X152Y1173D01*
X154Y1173D01*
X154Y1171D01*
X156Y1171D01*
X156Y1169D01*
X158Y1169D01*
X158Y1167D01*
X160Y1167D01*
X160Y1163D01*
X182Y1163D01*
X182Y1165D01*
X184Y1165D01*
X184Y1169D01*
X186Y1169D01*
X186Y1171D01*
X188Y1171D01*
X188Y1173D01*
X192Y1173D01*
X192Y1175D01*
X194Y1175D01*
X194Y1177D01*
X198Y1177D01*
X198Y1179D01*
X202Y1179D01*
X202Y1181D01*
X206Y1181D01*
X206Y1183D01*
X216Y1183D01*
X216Y1185D01*
X128Y1185D01*
G37*
D02*
G36*
X228Y1185D02*
X228Y1183D01*
X236Y1183D01*
X236Y1181D01*
X242Y1181D01*
X242Y1179D01*
X246Y1179D01*
X246Y1177D01*
X248Y1177D01*
X248Y1175D01*
X252Y1175D01*
X252Y1173D01*
X254Y1173D01*
X254Y1171D01*
X256Y1171D01*
X256Y1169D01*
X258Y1169D01*
X258Y1167D01*
X260Y1167D01*
X260Y1163D01*
X282Y1163D01*
X282Y1165D01*
X284Y1165D01*
X284Y1169D01*
X286Y1169D01*
X286Y1171D01*
X288Y1171D01*
X288Y1173D01*
X292Y1173D01*
X292Y1175D01*
X294Y1175D01*
X294Y1177D01*
X298Y1177D01*
X298Y1179D01*
X302Y1179D01*
X302Y1181D01*
X306Y1181D01*
X306Y1183D01*
X316Y1183D01*
X316Y1185D01*
X228Y1185D01*
G37*
D02*
G36*
X328Y1185D02*
X328Y1183D01*
X336Y1183D01*
X336Y1181D01*
X342Y1181D01*
X342Y1179D01*
X346Y1179D01*
X346Y1177D01*
X348Y1177D01*
X348Y1175D01*
X352Y1175D01*
X352Y1173D01*
X354Y1173D01*
X354Y1171D01*
X356Y1171D01*
X356Y1169D01*
X358Y1169D01*
X358Y1167D01*
X360Y1167D01*
X360Y1163D01*
X382Y1163D01*
X382Y1165D01*
X384Y1165D01*
X384Y1169D01*
X386Y1169D01*
X386Y1171D01*
X388Y1171D01*
X388Y1173D01*
X392Y1173D01*
X392Y1175D01*
X394Y1175D01*
X394Y1177D01*
X398Y1177D01*
X398Y1179D01*
X402Y1179D01*
X402Y1181D01*
X406Y1181D01*
X406Y1183D01*
X416Y1183D01*
X416Y1185D01*
X328Y1185D01*
G37*
D02*
G36*
X1226Y1185D02*
X1226Y1183D01*
X1224Y1183D01*
X1224Y1179D01*
X1222Y1179D01*
X1222Y1177D01*
X1220Y1177D01*
X1220Y1173D01*
X1218Y1173D01*
X1218Y1171D01*
X1216Y1171D01*
X1216Y1169D01*
X1214Y1169D01*
X1214Y1167D01*
X1212Y1167D01*
X1212Y1165D01*
X1210Y1165D01*
X1210Y1163D01*
X1208Y1163D01*
X1208Y1143D01*
X1210Y1143D01*
X1210Y1141D01*
X1212Y1141D01*
X1212Y1139D01*
X1214Y1139D01*
X1214Y1137D01*
X1216Y1137D01*
X1216Y1135D01*
X1218Y1135D01*
X1218Y1133D01*
X1220Y1133D01*
X1220Y1131D01*
X1222Y1131D01*
X1222Y1127D01*
X1224Y1127D01*
X1224Y1123D01*
X1226Y1123D01*
X1226Y1117D01*
X1228Y1117D01*
X1228Y1109D01*
X1230Y1109D01*
X1230Y1099D01*
X1228Y1099D01*
X1228Y1089D01*
X1226Y1089D01*
X1226Y1087D01*
X1330Y1087D01*
X1330Y1089D01*
X1324Y1089D01*
X1324Y1091D01*
X1320Y1091D01*
X1320Y1093D01*
X1316Y1093D01*
X1316Y1095D01*
X1314Y1095D01*
X1314Y1097D01*
X1310Y1097D01*
X1310Y1099D01*
X1308Y1099D01*
X1308Y1101D01*
X1306Y1101D01*
X1306Y1103D01*
X1304Y1103D01*
X1304Y1105D01*
X1302Y1105D01*
X1302Y1109D01*
X1300Y1109D01*
X1300Y1113D01*
X1298Y1113D01*
X1298Y1115D01*
X1296Y1115D01*
X1296Y1121D01*
X1294Y1121D01*
X1294Y1131D01*
X1292Y1131D01*
X1292Y1139D01*
X1294Y1139D01*
X1294Y1149D01*
X1296Y1149D01*
X1296Y1155D01*
X1298Y1155D01*
X1298Y1159D01*
X1300Y1159D01*
X1300Y1163D01*
X1302Y1163D01*
X1302Y1165D01*
X1304Y1165D01*
X1304Y1167D01*
X1306Y1167D01*
X1306Y1169D01*
X1308Y1169D01*
X1308Y1171D01*
X1310Y1171D01*
X1310Y1173D01*
X1312Y1173D01*
X1312Y1175D01*
X1314Y1175D01*
X1314Y1177D01*
X1318Y1177D01*
X1318Y1179D01*
X1322Y1179D01*
X1322Y1181D01*
X1328Y1181D01*
X1328Y1183D01*
X1336Y1183D01*
X1336Y1185D01*
X1226Y1185D01*
G37*
D02*
G36*
X1348Y1185D02*
X1348Y1183D01*
X1356Y1183D01*
X1356Y1181D01*
X1362Y1181D01*
X1362Y1179D01*
X1366Y1179D01*
X1366Y1177D01*
X1370Y1177D01*
X1370Y1175D01*
X1372Y1175D01*
X1372Y1173D01*
X1374Y1173D01*
X1374Y1171D01*
X1376Y1171D01*
X1376Y1169D01*
X1378Y1169D01*
X1378Y1167D01*
X1380Y1167D01*
X1380Y1165D01*
X1382Y1165D01*
X1382Y1163D01*
X1402Y1163D01*
X1402Y1165D01*
X1404Y1165D01*
X1404Y1167D01*
X1406Y1167D01*
X1406Y1169D01*
X1408Y1169D01*
X1408Y1171D01*
X1410Y1171D01*
X1410Y1173D01*
X1412Y1173D01*
X1412Y1175D01*
X1414Y1175D01*
X1414Y1177D01*
X1418Y1177D01*
X1418Y1179D01*
X1422Y1179D01*
X1422Y1181D01*
X1428Y1181D01*
X1428Y1183D01*
X1436Y1183D01*
X1436Y1185D01*
X1348Y1185D01*
G37*
D02*
G36*
X1448Y1185D02*
X1448Y1183D01*
X1456Y1183D01*
X1456Y1181D01*
X1462Y1181D01*
X1462Y1179D01*
X1466Y1179D01*
X1466Y1177D01*
X1470Y1177D01*
X1470Y1175D01*
X1472Y1175D01*
X1472Y1173D01*
X1474Y1173D01*
X1474Y1171D01*
X1476Y1171D01*
X1476Y1169D01*
X1478Y1169D01*
X1478Y1167D01*
X1480Y1167D01*
X1480Y1165D01*
X1482Y1165D01*
X1482Y1163D01*
X1502Y1163D01*
X1502Y1165D01*
X1504Y1165D01*
X1504Y1167D01*
X1506Y1167D01*
X1506Y1169D01*
X1508Y1169D01*
X1508Y1171D01*
X1510Y1171D01*
X1510Y1173D01*
X1512Y1173D01*
X1512Y1175D01*
X1514Y1175D01*
X1514Y1177D01*
X1518Y1177D01*
X1518Y1179D01*
X1522Y1179D01*
X1522Y1181D01*
X1528Y1181D01*
X1528Y1183D01*
X1536Y1183D01*
X1536Y1185D01*
X1448Y1185D01*
G37*
D02*
G36*
X1548Y1185D02*
X1548Y1183D01*
X1556Y1183D01*
X1556Y1181D01*
X1562Y1181D01*
X1562Y1179D01*
X1566Y1179D01*
X1566Y1177D01*
X1570Y1177D01*
X1570Y1175D01*
X1572Y1175D01*
X1572Y1173D01*
X1574Y1173D01*
X1574Y1171D01*
X1576Y1171D01*
X1576Y1169D01*
X1578Y1169D01*
X1578Y1167D01*
X1580Y1167D01*
X1580Y1165D01*
X1582Y1165D01*
X1582Y1163D01*
X1602Y1163D01*
X1602Y1165D01*
X1604Y1165D01*
X1604Y1167D01*
X1606Y1167D01*
X1606Y1169D01*
X1608Y1169D01*
X1608Y1171D01*
X1610Y1171D01*
X1610Y1173D01*
X1612Y1173D01*
X1612Y1175D01*
X1614Y1175D01*
X1614Y1177D01*
X1618Y1177D01*
X1618Y1179D01*
X1622Y1179D01*
X1622Y1181D01*
X1628Y1181D01*
X1628Y1183D01*
X1636Y1183D01*
X1636Y1185D01*
X1548Y1185D01*
G37*
D02*
G36*
X1382Y1109D02*
X1382Y1107D01*
X1380Y1107D01*
X1380Y1105D01*
X1378Y1105D01*
X1378Y1101D01*
X1376Y1101D01*
X1376Y1099D01*
X1372Y1099D01*
X1372Y1097D01*
X1370Y1097D01*
X1370Y1095D01*
X1368Y1095D01*
X1368Y1093D01*
X1364Y1093D01*
X1364Y1091D01*
X1360Y1091D01*
X1360Y1089D01*
X1352Y1089D01*
X1352Y1087D01*
X1430Y1087D01*
X1430Y1089D01*
X1424Y1089D01*
X1424Y1091D01*
X1420Y1091D01*
X1420Y1093D01*
X1416Y1093D01*
X1416Y1095D01*
X1414Y1095D01*
X1414Y1097D01*
X1410Y1097D01*
X1410Y1099D01*
X1408Y1099D01*
X1408Y1101D01*
X1406Y1101D01*
X1406Y1103D01*
X1404Y1103D01*
X1404Y1105D01*
X1402Y1105D01*
X1402Y1109D01*
X1382Y1109D01*
G37*
D02*
G36*
X1482Y1109D02*
X1482Y1107D01*
X1480Y1107D01*
X1480Y1105D01*
X1478Y1105D01*
X1478Y1101D01*
X1476Y1101D01*
X1476Y1099D01*
X1472Y1099D01*
X1472Y1097D01*
X1470Y1097D01*
X1470Y1095D01*
X1468Y1095D01*
X1468Y1093D01*
X1464Y1093D01*
X1464Y1091D01*
X1460Y1091D01*
X1460Y1089D01*
X1452Y1089D01*
X1452Y1087D01*
X1530Y1087D01*
X1530Y1089D01*
X1524Y1089D01*
X1524Y1091D01*
X1520Y1091D01*
X1520Y1093D01*
X1516Y1093D01*
X1516Y1095D01*
X1514Y1095D01*
X1514Y1097D01*
X1510Y1097D01*
X1510Y1099D01*
X1508Y1099D01*
X1508Y1101D01*
X1506Y1101D01*
X1506Y1103D01*
X1504Y1103D01*
X1504Y1105D01*
X1502Y1105D01*
X1502Y1109D01*
X1482Y1109D01*
G37*
D02*
G36*
X1582Y1109D02*
X1582Y1107D01*
X1580Y1107D01*
X1580Y1105D01*
X1578Y1105D01*
X1578Y1101D01*
X1576Y1101D01*
X1576Y1099D01*
X1572Y1099D01*
X1572Y1097D01*
X1570Y1097D01*
X1570Y1095D01*
X1568Y1095D01*
X1568Y1093D01*
X1564Y1093D01*
X1564Y1091D01*
X1560Y1091D01*
X1560Y1089D01*
X1552Y1089D01*
X1552Y1087D01*
X1630Y1087D01*
X1630Y1089D01*
X1624Y1089D01*
X1624Y1091D01*
X1620Y1091D01*
X1620Y1093D01*
X1616Y1093D01*
X1616Y1095D01*
X1614Y1095D01*
X1614Y1097D01*
X1610Y1097D01*
X1610Y1099D01*
X1608Y1099D01*
X1608Y1101D01*
X1606Y1101D01*
X1606Y1103D01*
X1604Y1103D01*
X1604Y1105D01*
X1602Y1105D01*
X1602Y1109D01*
X1582Y1109D01*
G37*
D02*
G36*
X160Y1107D02*
X160Y1105D01*
X158Y1105D01*
X158Y1103D01*
X156Y1103D01*
X156Y1101D01*
X154Y1101D01*
X154Y1099D01*
X152Y1099D01*
X152Y1097D01*
X150Y1097D01*
X150Y1095D01*
X146Y1095D01*
X146Y1093D01*
X144Y1093D01*
X144Y1091D01*
X140Y1091D01*
X140Y1089D01*
X132Y1089D01*
X132Y1087D01*
X210Y1087D01*
X210Y1089D01*
X204Y1089D01*
X204Y1091D01*
X200Y1091D01*
X200Y1093D01*
X196Y1093D01*
X196Y1095D01*
X192Y1095D01*
X192Y1097D01*
X190Y1097D01*
X190Y1099D01*
X188Y1099D01*
X188Y1101D01*
X186Y1101D01*
X186Y1103D01*
X184Y1103D01*
X184Y1105D01*
X182Y1105D01*
X182Y1107D01*
X160Y1107D01*
G37*
D02*
G36*
X260Y1107D02*
X260Y1105D01*
X258Y1105D01*
X258Y1103D01*
X256Y1103D01*
X256Y1101D01*
X254Y1101D01*
X254Y1099D01*
X252Y1099D01*
X252Y1097D01*
X250Y1097D01*
X250Y1095D01*
X246Y1095D01*
X246Y1093D01*
X244Y1093D01*
X244Y1091D01*
X240Y1091D01*
X240Y1089D01*
X232Y1089D01*
X232Y1087D01*
X310Y1087D01*
X310Y1089D01*
X304Y1089D01*
X304Y1091D01*
X300Y1091D01*
X300Y1093D01*
X296Y1093D01*
X296Y1095D01*
X292Y1095D01*
X292Y1097D01*
X290Y1097D01*
X290Y1099D01*
X288Y1099D01*
X288Y1101D01*
X286Y1101D01*
X286Y1103D01*
X284Y1103D01*
X284Y1105D01*
X282Y1105D01*
X282Y1107D01*
X260Y1107D01*
G37*
D02*
G36*
X360Y1107D02*
X360Y1105D01*
X358Y1105D01*
X358Y1103D01*
X356Y1103D01*
X356Y1101D01*
X354Y1101D01*
X354Y1099D01*
X352Y1099D01*
X352Y1097D01*
X350Y1097D01*
X350Y1095D01*
X346Y1095D01*
X346Y1093D01*
X344Y1093D01*
X344Y1091D01*
X340Y1091D01*
X340Y1089D01*
X332Y1089D01*
X332Y1087D01*
X410Y1087D01*
X410Y1089D01*
X404Y1089D01*
X404Y1091D01*
X400Y1091D01*
X400Y1093D01*
X396Y1093D01*
X396Y1095D01*
X392Y1095D01*
X392Y1097D01*
X390Y1097D01*
X390Y1099D01*
X388Y1099D01*
X388Y1101D01*
X386Y1101D01*
X386Y1103D01*
X384Y1103D01*
X384Y1105D01*
X382Y1105D01*
X382Y1107D01*
X360Y1107D01*
G37*
D02*
G36*
X40Y1087D02*
X40Y1085D01*
X534Y1085D01*
X534Y1087D01*
X40Y1087D01*
G37*
D02*
G36*
X40Y1087D02*
X40Y1085D01*
X534Y1085D01*
X534Y1087D01*
X40Y1087D01*
G37*
D02*
G36*
X40Y1087D02*
X40Y1085D01*
X534Y1085D01*
X534Y1087D01*
X40Y1087D01*
G37*
D02*
G36*
X40Y1087D02*
X40Y1085D01*
X534Y1085D01*
X534Y1087D01*
X40Y1087D01*
G37*
D02*
G36*
X40Y1087D02*
X40Y1085D01*
X534Y1085D01*
X534Y1087D01*
X40Y1087D01*
G37*
D02*
G36*
X1226Y1087D02*
X1226Y1085D01*
X1754Y1085D01*
X1754Y1087D01*
X1226Y1087D01*
G37*
D02*
G36*
X1226Y1087D02*
X1226Y1085D01*
X1754Y1085D01*
X1754Y1087D01*
X1226Y1087D01*
G37*
D02*
G36*
X1226Y1087D02*
X1226Y1085D01*
X1754Y1085D01*
X1754Y1087D01*
X1226Y1087D01*
G37*
D02*
G36*
X1226Y1087D02*
X1226Y1085D01*
X1754Y1085D01*
X1754Y1087D01*
X1226Y1087D01*
G37*
D02*
G36*
X1226Y1087D02*
X1226Y1085D01*
X1754Y1085D01*
X1754Y1087D01*
X1226Y1087D01*
G37*
D02*
G36*
X40Y1085D02*
X40Y889D01*
X432Y889D01*
X432Y887D01*
X438Y887D01*
X438Y885D01*
X442Y885D01*
X442Y883D01*
X446Y883D01*
X446Y881D01*
X450Y881D01*
X450Y879D01*
X452Y879D01*
X452Y877D01*
X454Y877D01*
X454Y875D01*
X456Y875D01*
X456Y873D01*
X458Y873D01*
X458Y871D01*
X460Y871D01*
X460Y869D01*
X462Y869D01*
X462Y865D01*
X464Y865D01*
X464Y861D01*
X466Y861D01*
X466Y857D01*
X468Y857D01*
X468Y851D01*
X470Y851D01*
X470Y829D01*
X468Y829D01*
X468Y823D01*
X466Y823D01*
X466Y819D01*
X464Y819D01*
X464Y815D01*
X462Y815D01*
X462Y811D01*
X460Y811D01*
X460Y809D01*
X458Y809D01*
X458Y807D01*
X456Y807D01*
X456Y805D01*
X454Y805D01*
X454Y803D01*
X452Y803D01*
X452Y801D01*
X450Y801D01*
X450Y799D01*
X446Y799D01*
X446Y797D01*
X442Y797D01*
X442Y795D01*
X436Y795D01*
X436Y793D01*
X430Y793D01*
X430Y791D01*
X532Y791D01*
X532Y815D01*
X534Y815D01*
X534Y821D01*
X536Y821D01*
X536Y825D01*
X538Y825D01*
X538Y829D01*
X540Y829D01*
X540Y833D01*
X542Y833D01*
X542Y835D01*
X544Y835D01*
X544Y837D01*
X546Y837D01*
X546Y839D01*
X548Y839D01*
X548Y841D01*
X550Y841D01*
X550Y843D01*
X554Y843D01*
X554Y863D01*
X552Y863D01*
X552Y865D01*
X548Y865D01*
X548Y867D01*
X546Y867D01*
X546Y869D01*
X544Y869D01*
X544Y871D01*
X542Y871D01*
X542Y875D01*
X540Y875D01*
X540Y877D01*
X538Y877D01*
X538Y881D01*
X536Y881D01*
X536Y885D01*
X534Y885D01*
X534Y891D01*
X532Y891D01*
X532Y915D01*
X534Y915D01*
X534Y921D01*
X536Y921D01*
X536Y925D01*
X538Y925D01*
X538Y929D01*
X540Y929D01*
X540Y933D01*
X542Y933D01*
X542Y935D01*
X544Y935D01*
X544Y937D01*
X546Y937D01*
X546Y939D01*
X548Y939D01*
X548Y941D01*
X550Y941D01*
X550Y943D01*
X554Y943D01*
X554Y963D01*
X552Y963D01*
X552Y965D01*
X548Y965D01*
X548Y967D01*
X546Y967D01*
X546Y969D01*
X544Y969D01*
X544Y971D01*
X542Y971D01*
X542Y975D01*
X540Y975D01*
X540Y977D01*
X538Y977D01*
X538Y981D01*
X536Y981D01*
X536Y985D01*
X534Y985D01*
X534Y991D01*
X532Y991D01*
X532Y1015D01*
X534Y1015D01*
X534Y1021D01*
X536Y1021D01*
X536Y1025D01*
X538Y1025D01*
X538Y1029D01*
X540Y1029D01*
X540Y1033D01*
X542Y1033D01*
X542Y1035D01*
X544Y1035D01*
X544Y1037D01*
X546Y1037D01*
X546Y1039D01*
X548Y1039D01*
X548Y1041D01*
X550Y1041D01*
X550Y1043D01*
X554Y1043D01*
X554Y1063D01*
X552Y1063D01*
X552Y1065D01*
X548Y1065D01*
X548Y1067D01*
X546Y1067D01*
X546Y1069D01*
X544Y1069D01*
X544Y1071D01*
X542Y1071D01*
X542Y1075D01*
X540Y1075D01*
X540Y1077D01*
X538Y1077D01*
X538Y1081D01*
X536Y1081D01*
X536Y1085D01*
X40Y1085D01*
G37*
D02*
G36*
X1226Y1085D02*
X1226Y1083D01*
X1224Y1083D01*
X1224Y1079D01*
X1222Y1079D01*
X1222Y1077D01*
X1220Y1077D01*
X1220Y1073D01*
X1218Y1073D01*
X1218Y1071D01*
X1216Y1071D01*
X1216Y1069D01*
X1214Y1069D01*
X1214Y1067D01*
X1212Y1067D01*
X1212Y1065D01*
X1210Y1065D01*
X1210Y1063D01*
X1208Y1063D01*
X1208Y1043D01*
X1210Y1043D01*
X1210Y1041D01*
X1212Y1041D01*
X1212Y1039D01*
X1214Y1039D01*
X1214Y1037D01*
X1216Y1037D01*
X1216Y1035D01*
X1218Y1035D01*
X1218Y1033D01*
X1220Y1033D01*
X1220Y1031D01*
X1222Y1031D01*
X1222Y1027D01*
X1224Y1027D01*
X1224Y1023D01*
X1226Y1023D01*
X1226Y1017D01*
X1228Y1017D01*
X1228Y1009D01*
X1230Y1009D01*
X1230Y999D01*
X1228Y999D01*
X1228Y989D01*
X1226Y989D01*
X1226Y983D01*
X1224Y983D01*
X1224Y979D01*
X1222Y979D01*
X1222Y977D01*
X1220Y977D01*
X1220Y973D01*
X1218Y973D01*
X1218Y971D01*
X1216Y971D01*
X1216Y969D01*
X1214Y969D01*
X1214Y967D01*
X1212Y967D01*
X1212Y965D01*
X1210Y965D01*
X1210Y963D01*
X1208Y963D01*
X1208Y943D01*
X1210Y943D01*
X1210Y941D01*
X1212Y941D01*
X1212Y939D01*
X1214Y939D01*
X1214Y937D01*
X1216Y937D01*
X1216Y935D01*
X1218Y935D01*
X1218Y933D01*
X1220Y933D01*
X1220Y931D01*
X1222Y931D01*
X1222Y927D01*
X1224Y927D01*
X1224Y923D01*
X1226Y923D01*
X1226Y917D01*
X1228Y917D01*
X1228Y909D01*
X1230Y909D01*
X1230Y899D01*
X1228Y899D01*
X1228Y889D01*
X1652Y889D01*
X1652Y887D01*
X1658Y887D01*
X1658Y885D01*
X1664Y885D01*
X1664Y883D01*
X1666Y883D01*
X1666Y881D01*
X1670Y881D01*
X1670Y879D01*
X1672Y879D01*
X1672Y877D01*
X1674Y877D01*
X1674Y875D01*
X1678Y875D01*
X1678Y871D01*
X1680Y871D01*
X1680Y869D01*
X1682Y869D01*
X1682Y867D01*
X1684Y867D01*
X1684Y863D01*
X1686Y863D01*
X1686Y859D01*
X1688Y859D01*
X1688Y853D01*
X1690Y853D01*
X1690Y829D01*
X1688Y829D01*
X1688Y821D01*
X1686Y821D01*
X1686Y817D01*
X1684Y817D01*
X1684Y815D01*
X1682Y815D01*
X1682Y811D01*
X1680Y811D01*
X1680Y809D01*
X1678Y809D01*
X1678Y807D01*
X1676Y807D01*
X1676Y805D01*
X1674Y805D01*
X1674Y803D01*
X1672Y803D01*
X1672Y801D01*
X1670Y801D01*
X1670Y799D01*
X1666Y799D01*
X1666Y797D01*
X1662Y797D01*
X1662Y795D01*
X1658Y795D01*
X1658Y793D01*
X1650Y793D01*
X1650Y791D01*
X1754Y791D01*
X1754Y1085D01*
X1226Y1085D01*
G37*
D02*
G36*
X608Y1047D02*
X608Y1043D01*
X610Y1043D01*
X610Y1041D01*
X612Y1041D01*
X612Y1039D01*
X614Y1039D01*
X614Y1037D01*
X616Y1037D01*
X616Y1035D01*
X618Y1035D01*
X618Y1033D01*
X620Y1033D01*
X620Y1031D01*
X622Y1031D01*
X622Y1027D01*
X624Y1027D01*
X624Y1023D01*
X626Y1023D01*
X626Y1017D01*
X628Y1017D01*
X628Y1009D01*
X630Y1009D01*
X630Y999D01*
X628Y999D01*
X628Y989D01*
X626Y989D01*
X626Y983D01*
X624Y983D01*
X624Y979D01*
X622Y979D01*
X622Y977D01*
X620Y977D01*
X620Y973D01*
X618Y973D01*
X618Y971D01*
X616Y971D01*
X616Y969D01*
X614Y969D01*
X614Y967D01*
X612Y967D01*
X612Y965D01*
X610Y965D01*
X610Y963D01*
X608Y963D01*
X608Y949D01*
X720Y949D01*
X720Y951D01*
X714Y951D01*
X714Y953D01*
X710Y953D01*
X710Y955D01*
X706Y955D01*
X706Y957D01*
X704Y957D01*
X704Y959D01*
X700Y959D01*
X700Y961D01*
X698Y961D01*
X698Y963D01*
X696Y963D01*
X696Y965D01*
X694Y965D01*
X694Y967D01*
X692Y967D01*
X692Y971D01*
X690Y971D01*
X690Y973D01*
X688Y973D01*
X688Y977D01*
X686Y977D01*
X686Y983D01*
X684Y983D01*
X684Y991D01*
X682Y991D01*
X682Y1003D01*
X684Y1003D01*
X684Y1013D01*
X686Y1013D01*
X686Y1017D01*
X688Y1017D01*
X688Y1021D01*
X690Y1021D01*
X690Y1025D01*
X692Y1025D01*
X692Y1027D01*
X694Y1027D01*
X694Y1031D01*
X696Y1031D01*
X696Y1033D01*
X698Y1033D01*
X698Y1035D01*
X702Y1035D01*
X702Y1037D01*
X704Y1037D01*
X704Y1039D01*
X708Y1039D01*
X708Y1041D01*
X710Y1041D01*
X710Y1043D01*
X716Y1043D01*
X716Y1045D01*
X724Y1045D01*
X724Y1047D01*
X608Y1047D01*
G37*
D02*
G36*
X738Y1047D02*
X738Y1045D01*
X746Y1045D01*
X746Y1043D01*
X752Y1043D01*
X752Y1041D01*
X756Y1041D01*
X756Y1039D01*
X760Y1039D01*
X760Y1037D01*
X762Y1037D01*
X762Y1035D01*
X764Y1035D01*
X764Y1033D01*
X766Y1033D01*
X766Y1031D01*
X768Y1031D01*
X768Y1029D01*
X770Y1029D01*
X770Y1027D01*
X772Y1027D01*
X772Y1025D01*
X792Y1025D01*
X792Y1027D01*
X794Y1027D01*
X794Y1031D01*
X796Y1031D01*
X796Y1033D01*
X798Y1033D01*
X798Y1035D01*
X802Y1035D01*
X802Y1037D01*
X804Y1037D01*
X804Y1039D01*
X808Y1039D01*
X808Y1041D01*
X810Y1041D01*
X810Y1043D01*
X816Y1043D01*
X816Y1045D01*
X824Y1045D01*
X824Y1047D01*
X738Y1047D01*
G37*
D02*
G36*
X838Y1047D02*
X838Y1045D01*
X846Y1045D01*
X846Y1043D01*
X852Y1043D01*
X852Y1041D01*
X856Y1041D01*
X856Y1039D01*
X860Y1039D01*
X860Y1037D01*
X862Y1037D01*
X862Y1035D01*
X864Y1035D01*
X864Y1033D01*
X866Y1033D01*
X866Y1031D01*
X868Y1031D01*
X868Y1029D01*
X870Y1029D01*
X870Y1027D01*
X872Y1027D01*
X872Y1025D01*
X892Y1025D01*
X892Y1027D01*
X894Y1027D01*
X894Y1031D01*
X896Y1031D01*
X896Y1033D01*
X898Y1033D01*
X898Y1035D01*
X902Y1035D01*
X902Y1037D01*
X904Y1037D01*
X904Y1039D01*
X908Y1039D01*
X908Y1041D01*
X910Y1041D01*
X910Y1043D01*
X916Y1043D01*
X916Y1045D01*
X924Y1045D01*
X924Y1047D01*
X838Y1047D01*
G37*
D02*
G36*
X938Y1047D02*
X938Y1045D01*
X946Y1045D01*
X946Y1043D01*
X952Y1043D01*
X952Y1041D01*
X956Y1041D01*
X956Y1039D01*
X960Y1039D01*
X960Y1037D01*
X962Y1037D01*
X962Y1035D01*
X964Y1035D01*
X964Y1033D01*
X966Y1033D01*
X966Y1031D01*
X968Y1031D01*
X968Y1029D01*
X970Y1029D01*
X970Y1027D01*
X972Y1027D01*
X972Y1025D01*
X992Y1025D01*
X992Y1027D01*
X994Y1027D01*
X994Y1031D01*
X996Y1031D01*
X996Y1033D01*
X998Y1033D01*
X998Y1035D01*
X1002Y1035D01*
X1002Y1037D01*
X1004Y1037D01*
X1004Y1039D01*
X1008Y1039D01*
X1008Y1041D01*
X1010Y1041D01*
X1010Y1043D01*
X1016Y1043D01*
X1016Y1045D01*
X1024Y1045D01*
X1024Y1047D01*
X938Y1047D01*
G37*
D02*
G36*
X772Y971D02*
X772Y969D01*
X770Y969D01*
X770Y967D01*
X768Y967D01*
X768Y965D01*
X766Y965D01*
X766Y963D01*
X764Y963D01*
X764Y961D01*
X762Y961D01*
X762Y959D01*
X760Y959D01*
X760Y957D01*
X756Y957D01*
X756Y955D01*
X754Y955D01*
X754Y953D01*
X748Y953D01*
X748Y951D01*
X742Y951D01*
X742Y949D01*
X820Y949D01*
X820Y951D01*
X814Y951D01*
X814Y953D01*
X810Y953D01*
X810Y955D01*
X806Y955D01*
X806Y957D01*
X804Y957D01*
X804Y959D01*
X800Y959D01*
X800Y961D01*
X798Y961D01*
X798Y963D01*
X796Y963D01*
X796Y965D01*
X794Y965D01*
X794Y967D01*
X792Y967D01*
X792Y971D01*
X772Y971D01*
G37*
D02*
G36*
X872Y971D02*
X872Y969D01*
X870Y969D01*
X870Y967D01*
X868Y967D01*
X868Y965D01*
X866Y965D01*
X866Y963D01*
X864Y963D01*
X864Y961D01*
X862Y961D01*
X862Y959D01*
X860Y959D01*
X860Y957D01*
X856Y957D01*
X856Y955D01*
X854Y955D01*
X854Y953D01*
X848Y953D01*
X848Y951D01*
X842Y951D01*
X842Y949D01*
X920Y949D01*
X920Y951D01*
X914Y951D01*
X914Y953D01*
X910Y953D01*
X910Y955D01*
X906Y955D01*
X906Y957D01*
X904Y957D01*
X904Y959D01*
X900Y959D01*
X900Y961D01*
X898Y961D01*
X898Y963D01*
X896Y963D01*
X896Y965D01*
X894Y965D01*
X894Y967D01*
X892Y967D01*
X892Y971D01*
X872Y971D01*
G37*
D02*
G36*
X972Y971D02*
X972Y969D01*
X970Y969D01*
X970Y967D01*
X968Y967D01*
X968Y965D01*
X966Y965D01*
X966Y963D01*
X964Y963D01*
X964Y961D01*
X962Y961D01*
X962Y959D01*
X960Y959D01*
X960Y957D01*
X956Y957D01*
X956Y955D01*
X954Y955D01*
X954Y953D01*
X948Y953D01*
X948Y951D01*
X942Y951D01*
X942Y949D01*
X1020Y949D01*
X1020Y951D01*
X1014Y951D01*
X1014Y953D01*
X1010Y953D01*
X1010Y955D01*
X1006Y955D01*
X1006Y957D01*
X1004Y957D01*
X1004Y959D01*
X1000Y959D01*
X1000Y961D01*
X998Y961D01*
X998Y963D01*
X996Y963D01*
X996Y965D01*
X994Y965D01*
X994Y967D01*
X992Y967D01*
X992Y971D01*
X972Y971D01*
G37*
D02*
G36*
X608Y949D02*
X608Y947D01*
X1154Y947D01*
X1154Y949D01*
X608Y949D01*
G37*
D02*
G36*
X608Y949D02*
X608Y947D01*
X1154Y947D01*
X1154Y949D01*
X608Y949D01*
G37*
D02*
G36*
X608Y949D02*
X608Y947D01*
X1154Y947D01*
X1154Y949D01*
X608Y949D01*
G37*
D02*
G36*
X608Y949D02*
X608Y947D01*
X1154Y947D01*
X1154Y949D01*
X608Y949D01*
G37*
D02*
G36*
X608Y949D02*
X608Y947D01*
X1154Y947D01*
X1154Y949D01*
X608Y949D01*
G37*
D02*
G36*
X608Y947D02*
X608Y943D01*
X610Y943D01*
X610Y941D01*
X612Y941D01*
X612Y939D01*
X614Y939D01*
X614Y937D01*
X616Y937D01*
X616Y935D01*
X618Y935D01*
X618Y933D01*
X620Y933D01*
X620Y931D01*
X622Y931D01*
X622Y927D01*
X624Y927D01*
X624Y923D01*
X626Y923D01*
X626Y917D01*
X628Y917D01*
X628Y909D01*
X630Y909D01*
X630Y899D01*
X628Y899D01*
X628Y889D01*
X626Y889D01*
X626Y883D01*
X624Y883D01*
X624Y879D01*
X622Y879D01*
X622Y877D01*
X620Y877D01*
X620Y873D01*
X618Y873D01*
X618Y871D01*
X616Y871D01*
X616Y869D01*
X614Y869D01*
X614Y867D01*
X612Y867D01*
X612Y865D01*
X610Y865D01*
X610Y863D01*
X608Y863D01*
X608Y843D01*
X610Y843D01*
X610Y841D01*
X612Y841D01*
X612Y839D01*
X614Y839D01*
X614Y837D01*
X616Y837D01*
X616Y835D01*
X618Y835D01*
X618Y833D01*
X620Y833D01*
X620Y831D01*
X622Y831D01*
X622Y827D01*
X624Y827D01*
X624Y823D01*
X626Y823D01*
X626Y817D01*
X628Y817D01*
X628Y809D01*
X630Y809D01*
X630Y799D01*
X628Y799D01*
X628Y789D01*
X626Y789D01*
X626Y783D01*
X624Y783D01*
X624Y779D01*
X622Y779D01*
X622Y777D01*
X620Y777D01*
X620Y773D01*
X618Y773D01*
X618Y771D01*
X616Y771D01*
X616Y769D01*
X614Y769D01*
X614Y767D01*
X612Y767D01*
X612Y765D01*
X610Y765D01*
X610Y763D01*
X608Y763D01*
X608Y751D01*
X1042Y751D01*
X1042Y749D01*
X1050Y749D01*
X1050Y747D01*
X1054Y747D01*
X1054Y745D01*
X1056Y745D01*
X1056Y743D01*
X1060Y743D01*
X1060Y741D01*
X1062Y741D01*
X1062Y739D01*
X1066Y739D01*
X1066Y737D01*
X1068Y737D01*
X1068Y733D01*
X1070Y733D01*
X1070Y731D01*
X1072Y731D01*
X1072Y729D01*
X1074Y729D01*
X1074Y725D01*
X1076Y725D01*
X1076Y721D01*
X1078Y721D01*
X1078Y713D01*
X1080Y713D01*
X1080Y691D01*
X1078Y691D01*
X1078Y685D01*
X1076Y685D01*
X1076Y681D01*
X1074Y681D01*
X1074Y677D01*
X1072Y677D01*
X1072Y673D01*
X1070Y673D01*
X1070Y671D01*
X1068Y671D01*
X1068Y669D01*
X1066Y669D01*
X1066Y667D01*
X1064Y667D01*
X1064Y665D01*
X1062Y665D01*
X1062Y663D01*
X1058Y663D01*
X1058Y661D01*
X1056Y661D01*
X1056Y659D01*
X1052Y659D01*
X1052Y657D01*
X1046Y657D01*
X1046Y655D01*
X1038Y655D01*
X1038Y653D01*
X1154Y653D01*
X1154Y663D01*
X1152Y663D01*
X1152Y665D01*
X1148Y665D01*
X1148Y667D01*
X1146Y667D01*
X1146Y669D01*
X1144Y669D01*
X1144Y671D01*
X1142Y671D01*
X1142Y675D01*
X1140Y675D01*
X1140Y677D01*
X1138Y677D01*
X1138Y681D01*
X1136Y681D01*
X1136Y685D01*
X1134Y685D01*
X1134Y691D01*
X1132Y691D01*
X1132Y715D01*
X1134Y715D01*
X1134Y721D01*
X1136Y721D01*
X1136Y725D01*
X1138Y725D01*
X1138Y729D01*
X1140Y729D01*
X1140Y733D01*
X1142Y733D01*
X1142Y735D01*
X1144Y735D01*
X1144Y737D01*
X1146Y737D01*
X1146Y739D01*
X1148Y739D01*
X1148Y741D01*
X1150Y741D01*
X1150Y743D01*
X1154Y743D01*
X1154Y763D01*
X1152Y763D01*
X1152Y765D01*
X1148Y765D01*
X1148Y767D01*
X1146Y767D01*
X1146Y769D01*
X1144Y769D01*
X1144Y771D01*
X1142Y771D01*
X1142Y775D01*
X1140Y775D01*
X1140Y777D01*
X1138Y777D01*
X1138Y781D01*
X1136Y781D01*
X1136Y785D01*
X1134Y785D01*
X1134Y791D01*
X1132Y791D01*
X1132Y815D01*
X1134Y815D01*
X1134Y821D01*
X1136Y821D01*
X1136Y825D01*
X1138Y825D01*
X1138Y829D01*
X1140Y829D01*
X1140Y833D01*
X1142Y833D01*
X1142Y835D01*
X1144Y835D01*
X1144Y837D01*
X1146Y837D01*
X1146Y839D01*
X1148Y839D01*
X1148Y841D01*
X1150Y841D01*
X1150Y843D01*
X1154Y843D01*
X1154Y863D01*
X1152Y863D01*
X1152Y865D01*
X1148Y865D01*
X1148Y867D01*
X1146Y867D01*
X1146Y869D01*
X1144Y869D01*
X1144Y871D01*
X1142Y871D01*
X1142Y875D01*
X1140Y875D01*
X1140Y877D01*
X1138Y877D01*
X1138Y881D01*
X1136Y881D01*
X1136Y885D01*
X1134Y885D01*
X1134Y891D01*
X1132Y891D01*
X1132Y915D01*
X1134Y915D01*
X1134Y921D01*
X1136Y921D01*
X1136Y925D01*
X1138Y925D01*
X1138Y929D01*
X1140Y929D01*
X1140Y933D01*
X1142Y933D01*
X1142Y935D01*
X1144Y935D01*
X1144Y937D01*
X1146Y937D01*
X1146Y939D01*
X1148Y939D01*
X1148Y941D01*
X1150Y941D01*
X1150Y943D01*
X1154Y943D01*
X1154Y947D01*
X608Y947D01*
G37*
D02*
G36*
X40Y889D02*
X40Y791D01*
X114Y791D01*
X114Y793D01*
X106Y793D01*
X106Y795D01*
X100Y795D01*
X100Y797D01*
X96Y797D01*
X96Y799D01*
X94Y799D01*
X94Y801D01*
X92Y801D01*
X92Y803D01*
X88Y803D01*
X88Y805D01*
X86Y805D01*
X86Y807D01*
X84Y807D01*
X84Y811D01*
X82Y811D01*
X82Y813D01*
X80Y813D01*
X80Y815D01*
X78Y815D01*
X78Y819D01*
X76Y819D01*
X76Y825D01*
X74Y825D01*
X74Y833D01*
X72Y833D01*
X72Y847D01*
X74Y847D01*
X74Y855D01*
X76Y855D01*
X76Y861D01*
X78Y861D01*
X78Y865D01*
X80Y865D01*
X80Y867D01*
X82Y867D01*
X82Y871D01*
X84Y871D01*
X84Y873D01*
X86Y873D01*
X86Y875D01*
X88Y875D01*
X88Y877D01*
X90Y877D01*
X90Y879D01*
X92Y879D01*
X92Y881D01*
X96Y881D01*
X96Y883D01*
X100Y883D01*
X100Y885D01*
X104Y885D01*
X104Y887D01*
X112Y887D01*
X112Y889D01*
X40Y889D01*
G37*
D02*
G36*
X132Y889D02*
X132Y887D01*
X138Y887D01*
X138Y885D01*
X142Y885D01*
X142Y883D01*
X146Y883D01*
X146Y881D01*
X150Y881D01*
X150Y879D01*
X152Y879D01*
X152Y877D01*
X154Y877D01*
X154Y875D01*
X156Y875D01*
X156Y873D01*
X158Y873D01*
X158Y871D01*
X160Y871D01*
X160Y869D01*
X162Y869D01*
X162Y867D01*
X182Y867D01*
X182Y871D01*
X184Y871D01*
X184Y873D01*
X186Y873D01*
X186Y875D01*
X188Y875D01*
X188Y877D01*
X190Y877D01*
X190Y879D01*
X192Y879D01*
X192Y881D01*
X196Y881D01*
X196Y883D01*
X200Y883D01*
X200Y885D01*
X204Y885D01*
X204Y887D01*
X212Y887D01*
X212Y889D01*
X132Y889D01*
G37*
D02*
G36*
X232Y889D02*
X232Y887D01*
X238Y887D01*
X238Y885D01*
X242Y885D01*
X242Y883D01*
X246Y883D01*
X246Y881D01*
X250Y881D01*
X250Y879D01*
X252Y879D01*
X252Y877D01*
X254Y877D01*
X254Y875D01*
X256Y875D01*
X256Y873D01*
X258Y873D01*
X258Y871D01*
X260Y871D01*
X260Y869D01*
X262Y869D01*
X262Y867D01*
X282Y867D01*
X282Y871D01*
X284Y871D01*
X284Y873D01*
X286Y873D01*
X286Y875D01*
X288Y875D01*
X288Y877D01*
X290Y877D01*
X290Y879D01*
X292Y879D01*
X292Y881D01*
X296Y881D01*
X296Y883D01*
X300Y883D01*
X300Y885D01*
X304Y885D01*
X304Y887D01*
X312Y887D01*
X312Y889D01*
X232Y889D01*
G37*
D02*
G36*
X332Y889D02*
X332Y887D01*
X338Y887D01*
X338Y885D01*
X342Y885D01*
X342Y883D01*
X346Y883D01*
X346Y881D01*
X350Y881D01*
X350Y879D01*
X352Y879D01*
X352Y877D01*
X354Y877D01*
X354Y875D01*
X356Y875D01*
X356Y873D01*
X358Y873D01*
X358Y871D01*
X360Y871D01*
X360Y869D01*
X362Y869D01*
X362Y867D01*
X382Y867D01*
X382Y871D01*
X384Y871D01*
X384Y873D01*
X386Y873D01*
X386Y875D01*
X388Y875D01*
X388Y877D01*
X390Y877D01*
X390Y879D01*
X392Y879D01*
X392Y881D01*
X396Y881D01*
X396Y883D01*
X400Y883D01*
X400Y885D01*
X404Y885D01*
X404Y887D01*
X412Y887D01*
X412Y889D01*
X332Y889D01*
G37*
D02*
G36*
X1226Y889D02*
X1226Y883D01*
X1224Y883D01*
X1224Y879D01*
X1222Y879D01*
X1222Y877D01*
X1220Y877D01*
X1220Y873D01*
X1218Y873D01*
X1218Y871D01*
X1216Y871D01*
X1216Y869D01*
X1214Y869D01*
X1214Y867D01*
X1212Y867D01*
X1212Y865D01*
X1210Y865D01*
X1210Y863D01*
X1208Y863D01*
X1208Y843D01*
X1210Y843D01*
X1210Y841D01*
X1212Y841D01*
X1212Y839D01*
X1214Y839D01*
X1214Y837D01*
X1216Y837D01*
X1216Y835D01*
X1218Y835D01*
X1218Y833D01*
X1220Y833D01*
X1220Y831D01*
X1222Y831D01*
X1222Y827D01*
X1224Y827D01*
X1224Y823D01*
X1226Y823D01*
X1226Y817D01*
X1228Y817D01*
X1228Y809D01*
X1230Y809D01*
X1230Y799D01*
X1228Y799D01*
X1228Y791D01*
X1334Y791D01*
X1334Y793D01*
X1326Y793D01*
X1326Y795D01*
X1320Y795D01*
X1320Y797D01*
X1318Y797D01*
X1318Y799D01*
X1314Y799D01*
X1314Y801D01*
X1312Y801D01*
X1312Y803D01*
X1310Y803D01*
X1310Y805D01*
X1306Y805D01*
X1306Y809D01*
X1304Y809D01*
X1304Y811D01*
X1302Y811D01*
X1302Y813D01*
X1300Y813D01*
X1300Y817D01*
X1298Y817D01*
X1298Y821D01*
X1296Y821D01*
X1296Y827D01*
X1294Y827D01*
X1294Y837D01*
X1292Y837D01*
X1292Y845D01*
X1294Y845D01*
X1294Y853D01*
X1296Y853D01*
X1296Y859D01*
X1298Y859D01*
X1298Y863D01*
X1300Y863D01*
X1300Y867D01*
X1302Y867D01*
X1302Y869D01*
X1304Y869D01*
X1304Y873D01*
X1306Y873D01*
X1306Y875D01*
X1308Y875D01*
X1308Y877D01*
X1312Y877D01*
X1312Y879D01*
X1314Y879D01*
X1314Y881D01*
X1316Y881D01*
X1316Y883D01*
X1320Y883D01*
X1320Y885D01*
X1324Y885D01*
X1324Y887D01*
X1332Y887D01*
X1332Y889D01*
X1226Y889D01*
G37*
D02*
G36*
X1352Y889D02*
X1352Y887D01*
X1358Y887D01*
X1358Y885D01*
X1364Y885D01*
X1364Y883D01*
X1366Y883D01*
X1366Y881D01*
X1370Y881D01*
X1370Y879D01*
X1372Y879D01*
X1372Y877D01*
X1374Y877D01*
X1374Y875D01*
X1378Y875D01*
X1378Y871D01*
X1380Y871D01*
X1380Y869D01*
X1382Y869D01*
X1382Y867D01*
X1402Y867D01*
X1402Y869D01*
X1404Y869D01*
X1404Y873D01*
X1406Y873D01*
X1406Y875D01*
X1408Y875D01*
X1408Y877D01*
X1412Y877D01*
X1412Y879D01*
X1414Y879D01*
X1414Y881D01*
X1416Y881D01*
X1416Y883D01*
X1420Y883D01*
X1420Y885D01*
X1424Y885D01*
X1424Y887D01*
X1432Y887D01*
X1432Y889D01*
X1352Y889D01*
G37*
D02*
G36*
X1452Y889D02*
X1452Y887D01*
X1458Y887D01*
X1458Y885D01*
X1464Y885D01*
X1464Y883D01*
X1466Y883D01*
X1466Y881D01*
X1470Y881D01*
X1470Y879D01*
X1472Y879D01*
X1472Y877D01*
X1474Y877D01*
X1474Y875D01*
X1478Y875D01*
X1478Y871D01*
X1480Y871D01*
X1480Y869D01*
X1482Y869D01*
X1482Y867D01*
X1502Y867D01*
X1502Y869D01*
X1504Y869D01*
X1504Y873D01*
X1506Y873D01*
X1506Y875D01*
X1508Y875D01*
X1508Y877D01*
X1512Y877D01*
X1512Y879D01*
X1514Y879D01*
X1514Y881D01*
X1516Y881D01*
X1516Y883D01*
X1520Y883D01*
X1520Y885D01*
X1524Y885D01*
X1524Y887D01*
X1532Y887D01*
X1532Y889D01*
X1452Y889D01*
G37*
D02*
G36*
X1552Y889D02*
X1552Y887D01*
X1558Y887D01*
X1558Y885D01*
X1564Y885D01*
X1564Y883D01*
X1566Y883D01*
X1566Y881D01*
X1570Y881D01*
X1570Y879D01*
X1572Y879D01*
X1572Y877D01*
X1574Y877D01*
X1574Y875D01*
X1578Y875D01*
X1578Y871D01*
X1580Y871D01*
X1580Y869D01*
X1582Y869D01*
X1582Y867D01*
X1602Y867D01*
X1602Y869D01*
X1604Y869D01*
X1604Y873D01*
X1606Y873D01*
X1606Y875D01*
X1608Y875D01*
X1608Y877D01*
X1612Y877D01*
X1612Y879D01*
X1614Y879D01*
X1614Y881D01*
X1616Y881D01*
X1616Y883D01*
X1620Y883D01*
X1620Y885D01*
X1624Y885D01*
X1624Y887D01*
X1632Y887D01*
X1632Y889D01*
X1552Y889D01*
G37*
D02*
G36*
X162Y813D02*
X162Y811D01*
X160Y811D01*
X160Y809D01*
X158Y809D01*
X158Y807D01*
X156Y807D01*
X156Y805D01*
X154Y805D01*
X154Y803D01*
X152Y803D01*
X152Y801D01*
X150Y801D01*
X150Y799D01*
X146Y799D01*
X146Y797D01*
X142Y797D01*
X142Y795D01*
X136Y795D01*
X136Y793D01*
X130Y793D01*
X130Y791D01*
X214Y791D01*
X214Y793D01*
X206Y793D01*
X206Y795D01*
X200Y795D01*
X200Y797D01*
X196Y797D01*
X196Y799D01*
X194Y799D01*
X194Y801D01*
X192Y801D01*
X192Y803D01*
X188Y803D01*
X188Y805D01*
X186Y805D01*
X186Y807D01*
X184Y807D01*
X184Y811D01*
X182Y811D01*
X182Y813D01*
X162Y813D01*
G37*
D02*
G36*
X262Y813D02*
X262Y811D01*
X260Y811D01*
X260Y809D01*
X258Y809D01*
X258Y807D01*
X256Y807D01*
X256Y805D01*
X254Y805D01*
X254Y803D01*
X252Y803D01*
X252Y801D01*
X250Y801D01*
X250Y799D01*
X246Y799D01*
X246Y797D01*
X242Y797D01*
X242Y795D01*
X236Y795D01*
X236Y793D01*
X230Y793D01*
X230Y791D01*
X314Y791D01*
X314Y793D01*
X306Y793D01*
X306Y795D01*
X300Y795D01*
X300Y797D01*
X296Y797D01*
X296Y799D01*
X294Y799D01*
X294Y801D01*
X292Y801D01*
X292Y803D01*
X288Y803D01*
X288Y805D01*
X286Y805D01*
X286Y807D01*
X284Y807D01*
X284Y811D01*
X282Y811D01*
X282Y813D01*
X262Y813D01*
G37*
D02*
G36*
X362Y813D02*
X362Y811D01*
X360Y811D01*
X360Y809D01*
X358Y809D01*
X358Y807D01*
X356Y807D01*
X356Y805D01*
X354Y805D01*
X354Y803D01*
X352Y803D01*
X352Y801D01*
X350Y801D01*
X350Y799D01*
X346Y799D01*
X346Y797D01*
X342Y797D01*
X342Y795D01*
X336Y795D01*
X336Y793D01*
X330Y793D01*
X330Y791D01*
X414Y791D01*
X414Y793D01*
X406Y793D01*
X406Y795D01*
X400Y795D01*
X400Y797D01*
X396Y797D01*
X396Y799D01*
X394Y799D01*
X394Y801D01*
X392Y801D01*
X392Y803D01*
X388Y803D01*
X388Y805D01*
X386Y805D01*
X386Y807D01*
X384Y807D01*
X384Y811D01*
X382Y811D01*
X382Y813D01*
X362Y813D01*
G37*
D02*
G36*
X1382Y813D02*
X1382Y811D01*
X1380Y811D01*
X1380Y809D01*
X1378Y809D01*
X1378Y807D01*
X1376Y807D01*
X1376Y805D01*
X1374Y805D01*
X1374Y803D01*
X1372Y803D01*
X1372Y801D01*
X1370Y801D01*
X1370Y799D01*
X1366Y799D01*
X1366Y797D01*
X1362Y797D01*
X1362Y795D01*
X1358Y795D01*
X1358Y793D01*
X1350Y793D01*
X1350Y791D01*
X1434Y791D01*
X1434Y793D01*
X1426Y793D01*
X1426Y795D01*
X1420Y795D01*
X1420Y797D01*
X1418Y797D01*
X1418Y799D01*
X1414Y799D01*
X1414Y801D01*
X1412Y801D01*
X1412Y803D01*
X1410Y803D01*
X1410Y805D01*
X1406Y805D01*
X1406Y809D01*
X1404Y809D01*
X1404Y811D01*
X1402Y811D01*
X1402Y813D01*
X1382Y813D01*
G37*
D02*
G36*
X1482Y813D02*
X1482Y811D01*
X1480Y811D01*
X1480Y809D01*
X1478Y809D01*
X1478Y807D01*
X1476Y807D01*
X1476Y805D01*
X1474Y805D01*
X1474Y803D01*
X1472Y803D01*
X1472Y801D01*
X1470Y801D01*
X1470Y799D01*
X1466Y799D01*
X1466Y797D01*
X1462Y797D01*
X1462Y795D01*
X1458Y795D01*
X1458Y793D01*
X1450Y793D01*
X1450Y791D01*
X1534Y791D01*
X1534Y793D01*
X1526Y793D01*
X1526Y795D01*
X1520Y795D01*
X1520Y797D01*
X1518Y797D01*
X1518Y799D01*
X1514Y799D01*
X1514Y801D01*
X1512Y801D01*
X1512Y803D01*
X1510Y803D01*
X1510Y805D01*
X1506Y805D01*
X1506Y809D01*
X1504Y809D01*
X1504Y811D01*
X1502Y811D01*
X1502Y813D01*
X1482Y813D01*
G37*
D02*
G36*
X1582Y813D02*
X1582Y811D01*
X1580Y811D01*
X1580Y809D01*
X1578Y809D01*
X1578Y807D01*
X1576Y807D01*
X1576Y805D01*
X1574Y805D01*
X1574Y803D01*
X1572Y803D01*
X1572Y801D01*
X1570Y801D01*
X1570Y799D01*
X1566Y799D01*
X1566Y797D01*
X1562Y797D01*
X1562Y795D01*
X1558Y795D01*
X1558Y793D01*
X1550Y793D01*
X1550Y791D01*
X1634Y791D01*
X1634Y793D01*
X1626Y793D01*
X1626Y795D01*
X1620Y795D01*
X1620Y797D01*
X1618Y797D01*
X1618Y799D01*
X1614Y799D01*
X1614Y801D01*
X1612Y801D01*
X1612Y803D01*
X1610Y803D01*
X1610Y805D01*
X1606Y805D01*
X1606Y809D01*
X1604Y809D01*
X1604Y811D01*
X1602Y811D01*
X1602Y813D01*
X1582Y813D01*
G37*
D02*
G36*
X40Y791D02*
X40Y789D01*
X534Y789D01*
X534Y791D01*
X40Y791D01*
G37*
D02*
G36*
X40Y791D02*
X40Y789D01*
X534Y789D01*
X534Y791D01*
X40Y791D01*
G37*
D02*
G36*
X40Y791D02*
X40Y789D01*
X534Y789D01*
X534Y791D01*
X40Y791D01*
G37*
D02*
G36*
X40Y791D02*
X40Y789D01*
X534Y789D01*
X534Y791D01*
X40Y791D01*
G37*
D02*
G36*
X40Y791D02*
X40Y789D01*
X534Y789D01*
X534Y791D01*
X40Y791D01*
G37*
D02*
G36*
X1228Y791D02*
X1228Y789D01*
X1754Y789D01*
X1754Y791D01*
X1228Y791D01*
G37*
D02*
G36*
X1228Y791D02*
X1228Y789D01*
X1754Y789D01*
X1754Y791D01*
X1228Y791D01*
G37*
D02*
G36*
X1228Y791D02*
X1228Y789D01*
X1754Y789D01*
X1754Y791D01*
X1228Y791D01*
G37*
D02*
G36*
X1228Y791D02*
X1228Y789D01*
X1754Y789D01*
X1754Y791D01*
X1228Y791D01*
G37*
D02*
G36*
X1228Y791D02*
X1228Y789D01*
X1754Y789D01*
X1754Y791D01*
X1228Y791D01*
G37*
D02*
G36*
X40Y789D02*
X40Y593D01*
X434Y593D01*
X434Y591D01*
X440Y591D01*
X440Y589D01*
X444Y589D01*
X444Y587D01*
X448Y587D01*
X448Y585D01*
X450Y585D01*
X450Y583D01*
X452Y583D01*
X452Y581D01*
X456Y581D01*
X456Y579D01*
X458Y579D01*
X458Y575D01*
X460Y575D01*
X460Y573D01*
X462Y573D01*
X462Y571D01*
X464Y571D01*
X464Y567D01*
X466Y567D01*
X466Y563D01*
X468Y563D01*
X468Y555D01*
X470Y555D01*
X470Y535D01*
X468Y535D01*
X468Y527D01*
X466Y527D01*
X466Y523D01*
X464Y523D01*
X464Y519D01*
X462Y519D01*
X462Y517D01*
X460Y517D01*
X460Y515D01*
X458Y515D01*
X458Y511D01*
X456Y511D01*
X456Y509D01*
X454Y509D01*
X454Y507D01*
X450Y507D01*
X450Y505D01*
X448Y505D01*
X448Y503D01*
X444Y503D01*
X444Y501D01*
X440Y501D01*
X440Y499D01*
X434Y499D01*
X434Y497D01*
X422Y497D01*
X422Y495D01*
X532Y495D01*
X532Y515D01*
X534Y515D01*
X534Y521D01*
X536Y521D01*
X536Y525D01*
X538Y525D01*
X538Y529D01*
X540Y529D01*
X540Y533D01*
X542Y533D01*
X542Y535D01*
X544Y535D01*
X544Y537D01*
X546Y537D01*
X546Y539D01*
X548Y539D01*
X548Y541D01*
X550Y541D01*
X550Y543D01*
X554Y543D01*
X554Y563D01*
X552Y563D01*
X552Y565D01*
X548Y565D01*
X548Y567D01*
X546Y567D01*
X546Y569D01*
X544Y569D01*
X544Y571D01*
X542Y571D01*
X542Y575D01*
X540Y575D01*
X540Y577D01*
X538Y577D01*
X538Y581D01*
X536Y581D01*
X536Y585D01*
X534Y585D01*
X534Y591D01*
X532Y591D01*
X532Y615D01*
X534Y615D01*
X534Y621D01*
X536Y621D01*
X536Y625D01*
X538Y625D01*
X538Y629D01*
X540Y629D01*
X540Y633D01*
X542Y633D01*
X542Y635D01*
X544Y635D01*
X544Y637D01*
X546Y637D01*
X546Y639D01*
X548Y639D01*
X548Y641D01*
X550Y641D01*
X550Y643D01*
X554Y643D01*
X554Y663D01*
X552Y663D01*
X552Y665D01*
X548Y665D01*
X548Y667D01*
X546Y667D01*
X546Y669D01*
X544Y669D01*
X544Y671D01*
X542Y671D01*
X542Y675D01*
X540Y675D01*
X540Y677D01*
X538Y677D01*
X538Y681D01*
X536Y681D01*
X536Y685D01*
X534Y685D01*
X534Y691D01*
X532Y691D01*
X532Y715D01*
X534Y715D01*
X534Y721D01*
X536Y721D01*
X536Y725D01*
X538Y725D01*
X538Y729D01*
X540Y729D01*
X540Y733D01*
X542Y733D01*
X542Y735D01*
X544Y735D01*
X544Y737D01*
X546Y737D01*
X546Y739D01*
X548Y739D01*
X548Y741D01*
X550Y741D01*
X550Y743D01*
X554Y743D01*
X554Y763D01*
X552Y763D01*
X552Y765D01*
X548Y765D01*
X548Y767D01*
X546Y767D01*
X546Y769D01*
X544Y769D01*
X544Y771D01*
X542Y771D01*
X542Y775D01*
X540Y775D01*
X540Y777D01*
X538Y777D01*
X538Y781D01*
X536Y781D01*
X536Y785D01*
X534Y785D01*
X534Y789D01*
X40Y789D01*
G37*
D02*
G36*
X1226Y789D02*
X1226Y783D01*
X1224Y783D01*
X1224Y779D01*
X1222Y779D01*
X1222Y777D01*
X1220Y777D01*
X1220Y773D01*
X1218Y773D01*
X1218Y771D01*
X1216Y771D01*
X1216Y769D01*
X1214Y769D01*
X1214Y767D01*
X1212Y767D01*
X1212Y765D01*
X1210Y765D01*
X1210Y763D01*
X1208Y763D01*
X1208Y743D01*
X1210Y743D01*
X1210Y741D01*
X1212Y741D01*
X1212Y739D01*
X1214Y739D01*
X1214Y737D01*
X1216Y737D01*
X1216Y735D01*
X1218Y735D01*
X1218Y733D01*
X1220Y733D01*
X1220Y731D01*
X1222Y731D01*
X1222Y727D01*
X1224Y727D01*
X1224Y723D01*
X1226Y723D01*
X1226Y717D01*
X1228Y717D01*
X1228Y709D01*
X1230Y709D01*
X1230Y699D01*
X1228Y699D01*
X1228Y689D01*
X1226Y689D01*
X1226Y683D01*
X1224Y683D01*
X1224Y679D01*
X1222Y679D01*
X1222Y677D01*
X1220Y677D01*
X1220Y673D01*
X1218Y673D01*
X1218Y671D01*
X1216Y671D01*
X1216Y669D01*
X1214Y669D01*
X1214Y667D01*
X1212Y667D01*
X1212Y665D01*
X1210Y665D01*
X1210Y663D01*
X1208Y663D01*
X1208Y643D01*
X1210Y643D01*
X1210Y641D01*
X1212Y641D01*
X1212Y639D01*
X1214Y639D01*
X1214Y637D01*
X1216Y637D01*
X1216Y635D01*
X1218Y635D01*
X1218Y633D01*
X1220Y633D01*
X1220Y631D01*
X1222Y631D01*
X1222Y627D01*
X1224Y627D01*
X1224Y623D01*
X1226Y623D01*
X1226Y617D01*
X1228Y617D01*
X1228Y609D01*
X1230Y609D01*
X1230Y599D01*
X1228Y599D01*
X1228Y593D01*
X1654Y593D01*
X1654Y591D01*
X1660Y591D01*
X1660Y589D01*
X1664Y589D01*
X1664Y587D01*
X1668Y587D01*
X1668Y585D01*
X1670Y585D01*
X1670Y583D01*
X1674Y583D01*
X1674Y581D01*
X1676Y581D01*
X1676Y579D01*
X1678Y579D01*
X1678Y577D01*
X1680Y577D01*
X1680Y573D01*
X1682Y573D01*
X1682Y571D01*
X1684Y571D01*
X1684Y567D01*
X1686Y567D01*
X1686Y563D01*
X1688Y563D01*
X1688Y557D01*
X1690Y557D01*
X1690Y533D01*
X1688Y533D01*
X1688Y527D01*
X1686Y527D01*
X1686Y523D01*
X1684Y523D01*
X1684Y519D01*
X1682Y519D01*
X1682Y515D01*
X1680Y515D01*
X1680Y513D01*
X1678Y513D01*
X1678Y511D01*
X1676Y511D01*
X1676Y509D01*
X1674Y509D01*
X1674Y507D01*
X1672Y507D01*
X1672Y505D01*
X1668Y505D01*
X1668Y503D01*
X1664Y503D01*
X1664Y501D01*
X1662Y501D01*
X1662Y499D01*
X1654Y499D01*
X1654Y497D01*
X1642Y497D01*
X1642Y495D01*
X1754Y495D01*
X1754Y789D01*
X1226Y789D01*
G37*
D02*
G36*
X608Y751D02*
X608Y743D01*
X610Y743D01*
X610Y741D01*
X612Y741D01*
X612Y739D01*
X614Y739D01*
X614Y737D01*
X616Y737D01*
X616Y735D01*
X618Y735D01*
X618Y733D01*
X620Y733D01*
X620Y731D01*
X622Y731D01*
X622Y727D01*
X624Y727D01*
X624Y723D01*
X626Y723D01*
X626Y717D01*
X628Y717D01*
X628Y709D01*
X630Y709D01*
X630Y699D01*
X628Y699D01*
X628Y689D01*
X626Y689D01*
X626Y683D01*
X624Y683D01*
X624Y679D01*
X622Y679D01*
X622Y677D01*
X620Y677D01*
X620Y673D01*
X618Y673D01*
X618Y671D01*
X616Y671D01*
X616Y669D01*
X614Y669D01*
X614Y667D01*
X612Y667D01*
X612Y665D01*
X610Y665D01*
X610Y663D01*
X608Y663D01*
X608Y653D01*
X724Y653D01*
X724Y655D01*
X716Y655D01*
X716Y657D01*
X712Y657D01*
X712Y659D01*
X708Y659D01*
X708Y661D01*
X704Y661D01*
X704Y663D01*
X702Y663D01*
X702Y665D01*
X700Y665D01*
X700Y667D01*
X696Y667D01*
X696Y671D01*
X694Y671D01*
X694Y673D01*
X692Y673D01*
X692Y675D01*
X690Y675D01*
X690Y679D01*
X688Y679D01*
X688Y683D01*
X686Y683D01*
X686Y687D01*
X684Y687D01*
X684Y697D01*
X682Y697D01*
X682Y709D01*
X684Y709D01*
X684Y717D01*
X686Y717D01*
X686Y723D01*
X688Y723D01*
X688Y727D01*
X690Y727D01*
X690Y729D01*
X692Y729D01*
X692Y733D01*
X694Y733D01*
X694Y735D01*
X696Y735D01*
X696Y737D01*
X698Y737D01*
X698Y739D01*
X700Y739D01*
X700Y741D01*
X702Y741D01*
X702Y743D01*
X706Y743D01*
X706Y745D01*
X710Y745D01*
X710Y747D01*
X714Y747D01*
X714Y749D01*
X720Y749D01*
X720Y751D01*
X608Y751D01*
G37*
D02*
G36*
X742Y751D02*
X742Y749D01*
X750Y749D01*
X750Y747D01*
X754Y747D01*
X754Y745D01*
X756Y745D01*
X756Y743D01*
X760Y743D01*
X760Y741D01*
X762Y741D01*
X762Y739D01*
X766Y739D01*
X766Y737D01*
X768Y737D01*
X768Y733D01*
X770Y733D01*
X770Y731D01*
X772Y731D01*
X772Y729D01*
X792Y729D01*
X792Y733D01*
X794Y733D01*
X794Y735D01*
X796Y735D01*
X796Y737D01*
X798Y737D01*
X798Y739D01*
X800Y739D01*
X800Y741D01*
X802Y741D01*
X802Y743D01*
X806Y743D01*
X806Y745D01*
X810Y745D01*
X810Y747D01*
X814Y747D01*
X814Y749D01*
X820Y749D01*
X820Y751D01*
X742Y751D01*
G37*
D02*
G36*
X842Y751D02*
X842Y749D01*
X850Y749D01*
X850Y747D01*
X854Y747D01*
X854Y745D01*
X856Y745D01*
X856Y743D01*
X860Y743D01*
X860Y741D01*
X862Y741D01*
X862Y739D01*
X866Y739D01*
X866Y737D01*
X868Y737D01*
X868Y733D01*
X870Y733D01*
X870Y731D01*
X872Y731D01*
X872Y729D01*
X892Y729D01*
X892Y733D01*
X894Y733D01*
X894Y735D01*
X896Y735D01*
X896Y737D01*
X898Y737D01*
X898Y739D01*
X900Y739D01*
X900Y741D01*
X902Y741D01*
X902Y743D01*
X906Y743D01*
X906Y745D01*
X910Y745D01*
X910Y747D01*
X914Y747D01*
X914Y749D01*
X920Y749D01*
X920Y751D01*
X842Y751D01*
G37*
D02*
G36*
X942Y751D02*
X942Y749D01*
X950Y749D01*
X950Y747D01*
X954Y747D01*
X954Y745D01*
X956Y745D01*
X956Y743D01*
X960Y743D01*
X960Y741D01*
X962Y741D01*
X962Y739D01*
X966Y739D01*
X966Y737D01*
X968Y737D01*
X968Y733D01*
X970Y733D01*
X970Y731D01*
X972Y731D01*
X972Y729D01*
X992Y729D01*
X992Y733D01*
X994Y733D01*
X994Y735D01*
X996Y735D01*
X996Y737D01*
X998Y737D01*
X998Y739D01*
X1000Y739D01*
X1000Y741D01*
X1002Y741D01*
X1002Y743D01*
X1006Y743D01*
X1006Y745D01*
X1010Y745D01*
X1010Y747D01*
X1014Y747D01*
X1014Y749D01*
X1020Y749D01*
X1020Y751D01*
X942Y751D01*
G37*
D02*
G36*
X772Y675D02*
X772Y673D01*
X770Y673D01*
X770Y671D01*
X768Y671D01*
X768Y669D01*
X766Y669D01*
X766Y667D01*
X764Y667D01*
X764Y665D01*
X762Y665D01*
X762Y663D01*
X758Y663D01*
X758Y661D01*
X756Y661D01*
X756Y659D01*
X752Y659D01*
X752Y657D01*
X746Y657D01*
X746Y655D01*
X738Y655D01*
X738Y653D01*
X824Y653D01*
X824Y655D01*
X816Y655D01*
X816Y657D01*
X812Y657D01*
X812Y659D01*
X808Y659D01*
X808Y661D01*
X804Y661D01*
X804Y663D01*
X802Y663D01*
X802Y665D01*
X800Y665D01*
X800Y667D01*
X796Y667D01*
X796Y671D01*
X794Y671D01*
X794Y673D01*
X792Y673D01*
X792Y675D01*
X772Y675D01*
G37*
D02*
G36*
X872Y675D02*
X872Y673D01*
X870Y673D01*
X870Y671D01*
X868Y671D01*
X868Y669D01*
X866Y669D01*
X866Y667D01*
X864Y667D01*
X864Y665D01*
X862Y665D01*
X862Y663D01*
X858Y663D01*
X858Y661D01*
X856Y661D01*
X856Y659D01*
X852Y659D01*
X852Y657D01*
X846Y657D01*
X846Y655D01*
X838Y655D01*
X838Y653D01*
X924Y653D01*
X924Y655D01*
X916Y655D01*
X916Y657D01*
X912Y657D01*
X912Y659D01*
X908Y659D01*
X908Y661D01*
X904Y661D01*
X904Y663D01*
X902Y663D01*
X902Y665D01*
X900Y665D01*
X900Y667D01*
X896Y667D01*
X896Y671D01*
X894Y671D01*
X894Y673D01*
X892Y673D01*
X892Y675D01*
X872Y675D01*
G37*
D02*
G36*
X972Y675D02*
X972Y673D01*
X970Y673D01*
X970Y671D01*
X968Y671D01*
X968Y669D01*
X966Y669D01*
X966Y667D01*
X964Y667D01*
X964Y665D01*
X962Y665D01*
X962Y663D01*
X958Y663D01*
X958Y661D01*
X956Y661D01*
X956Y659D01*
X952Y659D01*
X952Y657D01*
X946Y657D01*
X946Y655D01*
X938Y655D01*
X938Y653D01*
X1024Y653D01*
X1024Y655D01*
X1016Y655D01*
X1016Y657D01*
X1012Y657D01*
X1012Y659D01*
X1008Y659D01*
X1008Y661D01*
X1004Y661D01*
X1004Y663D01*
X1002Y663D01*
X1002Y665D01*
X1000Y665D01*
X1000Y667D01*
X996Y667D01*
X996Y671D01*
X994Y671D01*
X994Y673D01*
X992Y673D01*
X992Y675D01*
X972Y675D01*
G37*
D02*
G36*
X608Y653D02*
X608Y651D01*
X1154Y651D01*
X1154Y653D01*
X608Y653D01*
G37*
D02*
G36*
X608Y653D02*
X608Y651D01*
X1154Y651D01*
X1154Y653D01*
X608Y653D01*
G37*
D02*
G36*
X608Y653D02*
X608Y651D01*
X1154Y651D01*
X1154Y653D01*
X608Y653D01*
G37*
D02*
G36*
X608Y653D02*
X608Y651D01*
X1154Y651D01*
X1154Y653D01*
X608Y653D01*
G37*
D02*
G36*
X608Y653D02*
X608Y651D01*
X1154Y651D01*
X1154Y653D01*
X608Y653D01*
G37*
D02*
G36*
X608Y651D02*
X608Y643D01*
X610Y643D01*
X610Y641D01*
X612Y641D01*
X612Y639D01*
X614Y639D01*
X614Y637D01*
X616Y637D01*
X616Y635D01*
X618Y635D01*
X618Y633D01*
X620Y633D01*
X620Y631D01*
X622Y631D01*
X622Y627D01*
X624Y627D01*
X624Y623D01*
X626Y623D01*
X626Y617D01*
X628Y617D01*
X628Y609D01*
X630Y609D01*
X630Y599D01*
X628Y599D01*
X628Y589D01*
X626Y589D01*
X626Y583D01*
X624Y583D01*
X624Y579D01*
X622Y579D01*
X622Y577D01*
X620Y577D01*
X620Y573D01*
X618Y573D01*
X618Y571D01*
X616Y571D01*
X616Y569D01*
X614Y569D01*
X614Y567D01*
X612Y567D01*
X612Y565D01*
X610Y565D01*
X610Y563D01*
X608Y563D01*
X608Y543D01*
X610Y543D01*
X610Y541D01*
X612Y541D01*
X612Y539D01*
X614Y539D01*
X614Y537D01*
X616Y537D01*
X616Y535D01*
X618Y535D01*
X618Y533D01*
X620Y533D01*
X620Y531D01*
X622Y531D01*
X622Y527D01*
X624Y527D01*
X624Y523D01*
X626Y523D01*
X626Y517D01*
X628Y517D01*
X628Y509D01*
X630Y509D01*
X630Y499D01*
X628Y499D01*
X628Y489D01*
X626Y489D01*
X626Y483D01*
X624Y483D01*
X624Y479D01*
X622Y479D01*
X622Y477D01*
X620Y477D01*
X620Y473D01*
X618Y473D01*
X618Y471D01*
X616Y471D01*
X616Y469D01*
X614Y469D01*
X614Y467D01*
X612Y467D01*
X612Y465D01*
X610Y465D01*
X610Y463D01*
X608Y463D01*
X608Y457D01*
X1034Y457D01*
X1034Y455D01*
X1044Y455D01*
X1044Y453D01*
X1052Y453D01*
X1052Y451D01*
X1054Y451D01*
X1054Y449D01*
X1058Y449D01*
X1058Y447D01*
X1060Y447D01*
X1060Y445D01*
X1064Y445D01*
X1064Y443D01*
X1066Y443D01*
X1066Y441D01*
X1068Y441D01*
X1068Y439D01*
X1070Y439D01*
X1070Y435D01*
X1072Y435D01*
X1072Y433D01*
X1074Y433D01*
X1074Y429D01*
X1076Y429D01*
X1076Y425D01*
X1078Y425D01*
X1078Y419D01*
X1080Y419D01*
X1080Y395D01*
X1078Y395D01*
X1078Y389D01*
X1076Y389D01*
X1076Y385D01*
X1074Y385D01*
X1074Y381D01*
X1072Y381D01*
X1072Y379D01*
X1070Y379D01*
X1070Y377D01*
X1068Y377D01*
X1068Y373D01*
X1066Y373D01*
X1066Y371D01*
X1064Y371D01*
X1064Y369D01*
X1060Y369D01*
X1060Y367D01*
X1058Y367D01*
X1058Y365D01*
X1054Y365D01*
X1054Y363D01*
X1050Y363D01*
X1050Y361D01*
X1044Y361D01*
X1044Y359D01*
X1154Y359D01*
X1154Y363D01*
X1152Y363D01*
X1152Y365D01*
X1148Y365D01*
X1148Y367D01*
X1146Y367D01*
X1146Y369D01*
X1144Y369D01*
X1144Y371D01*
X1142Y371D01*
X1142Y375D01*
X1140Y375D01*
X1140Y377D01*
X1138Y377D01*
X1138Y381D01*
X1136Y381D01*
X1136Y385D01*
X1134Y385D01*
X1134Y391D01*
X1132Y391D01*
X1132Y415D01*
X1134Y415D01*
X1134Y421D01*
X1136Y421D01*
X1136Y425D01*
X1138Y425D01*
X1138Y429D01*
X1140Y429D01*
X1140Y433D01*
X1142Y433D01*
X1142Y435D01*
X1144Y435D01*
X1144Y437D01*
X1146Y437D01*
X1146Y439D01*
X1148Y439D01*
X1148Y441D01*
X1150Y441D01*
X1150Y443D01*
X1154Y443D01*
X1154Y463D01*
X1152Y463D01*
X1152Y465D01*
X1148Y465D01*
X1148Y467D01*
X1146Y467D01*
X1146Y469D01*
X1144Y469D01*
X1144Y471D01*
X1142Y471D01*
X1142Y475D01*
X1140Y475D01*
X1140Y477D01*
X1138Y477D01*
X1138Y481D01*
X1136Y481D01*
X1136Y485D01*
X1134Y485D01*
X1134Y491D01*
X1132Y491D01*
X1132Y515D01*
X1134Y515D01*
X1134Y521D01*
X1136Y521D01*
X1136Y525D01*
X1138Y525D01*
X1138Y529D01*
X1140Y529D01*
X1140Y533D01*
X1142Y533D01*
X1142Y535D01*
X1144Y535D01*
X1144Y537D01*
X1146Y537D01*
X1146Y539D01*
X1148Y539D01*
X1148Y541D01*
X1150Y541D01*
X1150Y543D01*
X1154Y543D01*
X1154Y563D01*
X1152Y563D01*
X1152Y565D01*
X1148Y565D01*
X1148Y567D01*
X1146Y567D01*
X1146Y569D01*
X1144Y569D01*
X1144Y571D01*
X1142Y571D01*
X1142Y575D01*
X1140Y575D01*
X1140Y577D01*
X1138Y577D01*
X1138Y581D01*
X1136Y581D01*
X1136Y585D01*
X1134Y585D01*
X1134Y591D01*
X1132Y591D01*
X1132Y615D01*
X1134Y615D01*
X1134Y621D01*
X1136Y621D01*
X1136Y625D01*
X1138Y625D01*
X1138Y629D01*
X1140Y629D01*
X1140Y633D01*
X1142Y633D01*
X1142Y635D01*
X1144Y635D01*
X1144Y637D01*
X1146Y637D01*
X1146Y639D01*
X1148Y639D01*
X1148Y641D01*
X1150Y641D01*
X1150Y643D01*
X1154Y643D01*
X1154Y651D01*
X608Y651D01*
G37*
D02*
G36*
X40Y593D02*
X40Y495D01*
X120Y495D01*
X120Y497D01*
X108Y497D01*
X108Y499D01*
X102Y499D01*
X102Y501D01*
X98Y501D01*
X98Y503D01*
X94Y503D01*
X94Y505D01*
X92Y505D01*
X92Y507D01*
X90Y507D01*
X90Y509D01*
X88Y509D01*
X88Y511D01*
X86Y511D01*
X86Y513D01*
X84Y513D01*
X84Y515D01*
X82Y515D01*
X82Y517D01*
X80Y517D01*
X80Y521D01*
X78Y521D01*
X78Y525D01*
X76Y525D01*
X76Y529D01*
X74Y529D01*
X74Y537D01*
X72Y537D01*
X72Y553D01*
X74Y553D01*
X74Y561D01*
X76Y561D01*
X76Y565D01*
X78Y565D01*
X78Y569D01*
X80Y569D01*
X80Y573D01*
X82Y573D01*
X82Y575D01*
X84Y575D01*
X84Y577D01*
X86Y577D01*
X86Y579D01*
X88Y579D01*
X88Y581D01*
X90Y581D01*
X90Y583D01*
X92Y583D01*
X92Y585D01*
X94Y585D01*
X94Y587D01*
X98Y587D01*
X98Y589D01*
X102Y589D01*
X102Y591D01*
X108Y591D01*
X108Y593D01*
X40Y593D01*
G37*
D02*
G36*
X134Y593D02*
X134Y591D01*
X140Y591D01*
X140Y589D01*
X144Y589D01*
X144Y587D01*
X148Y587D01*
X148Y585D01*
X150Y585D01*
X150Y583D01*
X152Y583D01*
X152Y581D01*
X156Y581D01*
X156Y579D01*
X158Y579D01*
X158Y575D01*
X160Y575D01*
X160Y573D01*
X182Y573D01*
X182Y575D01*
X184Y575D01*
X184Y577D01*
X186Y577D01*
X186Y579D01*
X188Y579D01*
X188Y581D01*
X190Y581D01*
X190Y583D01*
X192Y583D01*
X192Y585D01*
X194Y585D01*
X194Y587D01*
X198Y587D01*
X198Y589D01*
X202Y589D01*
X202Y591D01*
X208Y591D01*
X208Y593D01*
X134Y593D01*
G37*
D02*
G36*
X234Y593D02*
X234Y591D01*
X240Y591D01*
X240Y589D01*
X244Y589D01*
X244Y587D01*
X248Y587D01*
X248Y585D01*
X250Y585D01*
X250Y583D01*
X252Y583D01*
X252Y581D01*
X256Y581D01*
X256Y579D01*
X258Y579D01*
X258Y575D01*
X260Y575D01*
X260Y573D01*
X282Y573D01*
X282Y575D01*
X284Y575D01*
X284Y577D01*
X286Y577D01*
X286Y579D01*
X288Y579D01*
X288Y581D01*
X290Y581D01*
X290Y583D01*
X292Y583D01*
X292Y585D01*
X294Y585D01*
X294Y587D01*
X298Y587D01*
X298Y589D01*
X302Y589D01*
X302Y591D01*
X308Y591D01*
X308Y593D01*
X234Y593D01*
G37*
D02*
G36*
X334Y593D02*
X334Y591D01*
X340Y591D01*
X340Y589D01*
X344Y589D01*
X344Y587D01*
X348Y587D01*
X348Y585D01*
X350Y585D01*
X350Y583D01*
X352Y583D01*
X352Y581D01*
X356Y581D01*
X356Y579D01*
X358Y579D01*
X358Y575D01*
X360Y575D01*
X360Y573D01*
X382Y573D01*
X382Y575D01*
X384Y575D01*
X384Y577D01*
X386Y577D01*
X386Y579D01*
X388Y579D01*
X388Y581D01*
X390Y581D01*
X390Y583D01*
X392Y583D01*
X392Y585D01*
X394Y585D01*
X394Y587D01*
X398Y587D01*
X398Y589D01*
X402Y589D01*
X402Y591D01*
X408Y591D01*
X408Y593D01*
X334Y593D01*
G37*
D02*
G36*
X1228Y593D02*
X1228Y589D01*
X1226Y589D01*
X1226Y583D01*
X1224Y583D01*
X1224Y579D01*
X1222Y579D01*
X1222Y577D01*
X1220Y577D01*
X1220Y573D01*
X1218Y573D01*
X1218Y571D01*
X1216Y571D01*
X1216Y569D01*
X1214Y569D01*
X1214Y567D01*
X1212Y567D01*
X1212Y565D01*
X1210Y565D01*
X1210Y563D01*
X1208Y563D01*
X1208Y543D01*
X1210Y543D01*
X1210Y541D01*
X1212Y541D01*
X1212Y539D01*
X1214Y539D01*
X1214Y537D01*
X1216Y537D01*
X1216Y535D01*
X1218Y535D01*
X1218Y533D01*
X1220Y533D01*
X1220Y531D01*
X1222Y531D01*
X1222Y527D01*
X1224Y527D01*
X1224Y523D01*
X1226Y523D01*
X1226Y517D01*
X1228Y517D01*
X1228Y509D01*
X1230Y509D01*
X1230Y499D01*
X1228Y499D01*
X1228Y495D01*
X1340Y495D01*
X1340Y497D01*
X1328Y497D01*
X1328Y499D01*
X1322Y499D01*
X1322Y501D01*
X1318Y501D01*
X1318Y503D01*
X1316Y503D01*
X1316Y505D01*
X1312Y505D01*
X1312Y507D01*
X1310Y507D01*
X1310Y509D01*
X1308Y509D01*
X1308Y511D01*
X1306Y511D01*
X1306Y513D01*
X1304Y513D01*
X1304Y515D01*
X1302Y515D01*
X1302Y517D01*
X1300Y517D01*
X1300Y521D01*
X1298Y521D01*
X1298Y525D01*
X1296Y525D01*
X1296Y531D01*
X1294Y531D01*
X1294Y541D01*
X1292Y541D01*
X1292Y549D01*
X1294Y549D01*
X1294Y559D01*
X1296Y559D01*
X1296Y565D01*
X1298Y565D01*
X1298Y569D01*
X1300Y569D01*
X1300Y571D01*
X1302Y571D01*
X1302Y575D01*
X1304Y575D01*
X1304Y577D01*
X1306Y577D01*
X1306Y579D01*
X1308Y579D01*
X1308Y581D01*
X1310Y581D01*
X1310Y583D01*
X1312Y583D01*
X1312Y585D01*
X1316Y585D01*
X1316Y587D01*
X1318Y587D01*
X1318Y589D01*
X1322Y589D01*
X1322Y591D01*
X1330Y591D01*
X1330Y593D01*
X1228Y593D01*
G37*
D02*
G36*
X1354Y593D02*
X1354Y591D01*
X1360Y591D01*
X1360Y589D01*
X1364Y589D01*
X1364Y587D01*
X1368Y587D01*
X1368Y585D01*
X1370Y585D01*
X1370Y583D01*
X1374Y583D01*
X1374Y581D01*
X1376Y581D01*
X1376Y579D01*
X1378Y579D01*
X1378Y577D01*
X1380Y577D01*
X1380Y573D01*
X1382Y573D01*
X1382Y571D01*
X1402Y571D01*
X1402Y575D01*
X1404Y575D01*
X1404Y577D01*
X1406Y577D01*
X1406Y579D01*
X1408Y579D01*
X1408Y581D01*
X1410Y581D01*
X1410Y583D01*
X1412Y583D01*
X1412Y585D01*
X1416Y585D01*
X1416Y587D01*
X1418Y587D01*
X1418Y589D01*
X1422Y589D01*
X1422Y591D01*
X1430Y591D01*
X1430Y593D01*
X1354Y593D01*
G37*
D02*
G36*
X1454Y593D02*
X1454Y591D01*
X1460Y591D01*
X1460Y589D01*
X1464Y589D01*
X1464Y587D01*
X1468Y587D01*
X1468Y585D01*
X1470Y585D01*
X1470Y583D01*
X1474Y583D01*
X1474Y581D01*
X1476Y581D01*
X1476Y579D01*
X1478Y579D01*
X1478Y577D01*
X1480Y577D01*
X1480Y573D01*
X1482Y573D01*
X1482Y571D01*
X1502Y571D01*
X1502Y575D01*
X1504Y575D01*
X1504Y577D01*
X1506Y577D01*
X1506Y579D01*
X1508Y579D01*
X1508Y581D01*
X1510Y581D01*
X1510Y583D01*
X1512Y583D01*
X1512Y585D01*
X1516Y585D01*
X1516Y587D01*
X1518Y587D01*
X1518Y589D01*
X1522Y589D01*
X1522Y591D01*
X1530Y591D01*
X1530Y593D01*
X1454Y593D01*
G37*
D02*
G36*
X1554Y593D02*
X1554Y591D01*
X1560Y591D01*
X1560Y589D01*
X1564Y589D01*
X1564Y587D01*
X1568Y587D01*
X1568Y585D01*
X1570Y585D01*
X1570Y583D01*
X1574Y583D01*
X1574Y581D01*
X1576Y581D01*
X1576Y579D01*
X1578Y579D01*
X1578Y577D01*
X1580Y577D01*
X1580Y573D01*
X1582Y573D01*
X1582Y571D01*
X1602Y571D01*
X1602Y575D01*
X1604Y575D01*
X1604Y577D01*
X1606Y577D01*
X1606Y579D01*
X1608Y579D01*
X1608Y581D01*
X1610Y581D01*
X1610Y583D01*
X1612Y583D01*
X1612Y585D01*
X1616Y585D01*
X1616Y587D01*
X1618Y587D01*
X1618Y589D01*
X1622Y589D01*
X1622Y591D01*
X1630Y591D01*
X1630Y593D01*
X1554Y593D01*
G37*
D02*
G36*
X160Y517D02*
X160Y515D01*
X158Y515D01*
X158Y511D01*
X156Y511D01*
X156Y509D01*
X154Y509D01*
X154Y507D01*
X150Y507D01*
X150Y505D01*
X148Y505D01*
X148Y503D01*
X144Y503D01*
X144Y501D01*
X140Y501D01*
X140Y499D01*
X134Y499D01*
X134Y497D01*
X122Y497D01*
X122Y495D01*
X220Y495D01*
X220Y497D01*
X208Y497D01*
X208Y499D01*
X202Y499D01*
X202Y501D01*
X198Y501D01*
X198Y503D01*
X194Y503D01*
X194Y505D01*
X192Y505D01*
X192Y507D01*
X190Y507D01*
X190Y509D01*
X188Y509D01*
X188Y511D01*
X186Y511D01*
X186Y513D01*
X184Y513D01*
X184Y515D01*
X182Y515D01*
X182Y517D01*
X160Y517D01*
G37*
D02*
G36*
X260Y517D02*
X260Y515D01*
X258Y515D01*
X258Y511D01*
X256Y511D01*
X256Y509D01*
X254Y509D01*
X254Y507D01*
X250Y507D01*
X250Y505D01*
X248Y505D01*
X248Y503D01*
X244Y503D01*
X244Y501D01*
X240Y501D01*
X240Y499D01*
X234Y499D01*
X234Y497D01*
X222Y497D01*
X222Y495D01*
X320Y495D01*
X320Y497D01*
X308Y497D01*
X308Y499D01*
X302Y499D01*
X302Y501D01*
X298Y501D01*
X298Y503D01*
X294Y503D01*
X294Y505D01*
X292Y505D01*
X292Y507D01*
X290Y507D01*
X290Y509D01*
X288Y509D01*
X288Y511D01*
X286Y511D01*
X286Y513D01*
X284Y513D01*
X284Y515D01*
X282Y515D01*
X282Y517D01*
X260Y517D01*
G37*
D02*
G36*
X360Y517D02*
X360Y515D01*
X358Y515D01*
X358Y511D01*
X356Y511D01*
X356Y509D01*
X354Y509D01*
X354Y507D01*
X350Y507D01*
X350Y505D01*
X348Y505D01*
X348Y503D01*
X344Y503D01*
X344Y501D01*
X340Y501D01*
X340Y499D01*
X334Y499D01*
X334Y497D01*
X322Y497D01*
X322Y495D01*
X420Y495D01*
X420Y497D01*
X408Y497D01*
X408Y499D01*
X402Y499D01*
X402Y501D01*
X398Y501D01*
X398Y503D01*
X394Y503D01*
X394Y505D01*
X392Y505D01*
X392Y507D01*
X390Y507D01*
X390Y509D01*
X388Y509D01*
X388Y511D01*
X386Y511D01*
X386Y513D01*
X384Y513D01*
X384Y515D01*
X382Y515D01*
X382Y517D01*
X360Y517D01*
G37*
D02*
G36*
X1382Y517D02*
X1382Y515D01*
X1380Y515D01*
X1380Y513D01*
X1378Y513D01*
X1378Y511D01*
X1376Y511D01*
X1376Y509D01*
X1374Y509D01*
X1374Y507D01*
X1372Y507D01*
X1372Y505D01*
X1368Y505D01*
X1368Y503D01*
X1364Y503D01*
X1364Y501D01*
X1362Y501D01*
X1362Y499D01*
X1354Y499D01*
X1354Y497D01*
X1342Y497D01*
X1342Y495D01*
X1440Y495D01*
X1440Y497D01*
X1428Y497D01*
X1428Y499D01*
X1422Y499D01*
X1422Y501D01*
X1418Y501D01*
X1418Y503D01*
X1416Y503D01*
X1416Y505D01*
X1412Y505D01*
X1412Y507D01*
X1410Y507D01*
X1410Y509D01*
X1408Y509D01*
X1408Y511D01*
X1406Y511D01*
X1406Y513D01*
X1404Y513D01*
X1404Y515D01*
X1402Y515D01*
X1402Y517D01*
X1382Y517D01*
G37*
D02*
G36*
X1482Y517D02*
X1482Y515D01*
X1480Y515D01*
X1480Y513D01*
X1478Y513D01*
X1478Y511D01*
X1476Y511D01*
X1476Y509D01*
X1474Y509D01*
X1474Y507D01*
X1472Y507D01*
X1472Y505D01*
X1468Y505D01*
X1468Y503D01*
X1464Y503D01*
X1464Y501D01*
X1462Y501D01*
X1462Y499D01*
X1454Y499D01*
X1454Y497D01*
X1442Y497D01*
X1442Y495D01*
X1540Y495D01*
X1540Y497D01*
X1528Y497D01*
X1528Y499D01*
X1522Y499D01*
X1522Y501D01*
X1518Y501D01*
X1518Y503D01*
X1516Y503D01*
X1516Y505D01*
X1512Y505D01*
X1512Y507D01*
X1510Y507D01*
X1510Y509D01*
X1508Y509D01*
X1508Y511D01*
X1506Y511D01*
X1506Y513D01*
X1504Y513D01*
X1504Y515D01*
X1502Y515D01*
X1502Y517D01*
X1482Y517D01*
G37*
D02*
G36*
X1582Y517D02*
X1582Y515D01*
X1580Y515D01*
X1580Y513D01*
X1578Y513D01*
X1578Y511D01*
X1576Y511D01*
X1576Y509D01*
X1574Y509D01*
X1574Y507D01*
X1572Y507D01*
X1572Y505D01*
X1568Y505D01*
X1568Y503D01*
X1564Y503D01*
X1564Y501D01*
X1562Y501D01*
X1562Y499D01*
X1554Y499D01*
X1554Y497D01*
X1542Y497D01*
X1542Y495D01*
X1640Y495D01*
X1640Y497D01*
X1628Y497D01*
X1628Y499D01*
X1622Y499D01*
X1622Y501D01*
X1618Y501D01*
X1618Y503D01*
X1616Y503D01*
X1616Y505D01*
X1612Y505D01*
X1612Y507D01*
X1610Y507D01*
X1610Y509D01*
X1608Y509D01*
X1608Y511D01*
X1606Y511D01*
X1606Y513D01*
X1604Y513D01*
X1604Y515D01*
X1602Y515D01*
X1602Y517D01*
X1582Y517D01*
G37*
D02*
G36*
X40Y495D02*
X40Y493D01*
X532Y493D01*
X532Y495D01*
X40Y495D01*
G37*
D02*
G36*
X40Y495D02*
X40Y493D01*
X532Y493D01*
X532Y495D01*
X40Y495D01*
G37*
D02*
G36*
X40Y495D02*
X40Y493D01*
X532Y493D01*
X532Y495D01*
X40Y495D01*
G37*
D02*
G36*
X40Y495D02*
X40Y493D01*
X532Y493D01*
X532Y495D01*
X40Y495D01*
G37*
D02*
G36*
X40Y495D02*
X40Y493D01*
X532Y493D01*
X532Y495D01*
X40Y495D01*
G37*
D02*
G36*
X1228Y495D02*
X1228Y493D01*
X1754Y493D01*
X1754Y495D01*
X1228Y495D01*
G37*
D02*
G36*
X1228Y495D02*
X1228Y493D01*
X1754Y493D01*
X1754Y495D01*
X1228Y495D01*
G37*
D02*
G36*
X1228Y495D02*
X1228Y493D01*
X1754Y493D01*
X1754Y495D01*
X1228Y495D01*
G37*
D02*
G36*
X1228Y495D02*
X1228Y493D01*
X1754Y493D01*
X1754Y495D01*
X1228Y495D01*
G37*
D02*
G36*
X1228Y495D02*
X1228Y493D01*
X1754Y493D01*
X1754Y495D01*
X1228Y495D01*
G37*
D02*
G36*
X40Y493D02*
X40Y277D01*
X148Y277D01*
X148Y275D01*
X156Y275D01*
X156Y273D01*
X162Y273D01*
X162Y271D01*
X166Y271D01*
X166Y269D01*
X170Y269D01*
X170Y267D01*
X174Y267D01*
X174Y265D01*
X178Y265D01*
X178Y263D01*
X180Y263D01*
X180Y261D01*
X182Y261D01*
X182Y259D01*
X184Y259D01*
X184Y257D01*
X186Y257D01*
X186Y255D01*
X188Y255D01*
X188Y253D01*
X190Y253D01*
X190Y251D01*
X192Y251D01*
X192Y249D01*
X194Y249D01*
X194Y245D01*
X196Y245D01*
X196Y241D01*
X198Y241D01*
X198Y237D01*
X200Y237D01*
X200Y233D01*
X202Y233D01*
X202Y227D01*
X204Y227D01*
X204Y219D01*
X206Y219D01*
X206Y197D01*
X204Y197D01*
X204Y189D01*
X202Y189D01*
X202Y183D01*
X200Y183D01*
X200Y179D01*
X198Y179D01*
X198Y175D01*
X196Y175D01*
X196Y171D01*
X194Y171D01*
X194Y167D01*
X192Y167D01*
X192Y165D01*
X190Y165D01*
X190Y163D01*
X188Y163D01*
X188Y161D01*
X186Y161D01*
X186Y159D01*
X184Y159D01*
X184Y157D01*
X182Y157D01*
X182Y155D01*
X568Y155D01*
X568Y157D01*
X562Y157D01*
X562Y159D01*
X558Y159D01*
X558Y161D01*
X554Y161D01*
X554Y163D01*
X552Y163D01*
X552Y165D01*
X548Y165D01*
X548Y167D01*
X546Y167D01*
X546Y169D01*
X544Y169D01*
X544Y171D01*
X542Y171D01*
X542Y175D01*
X540Y175D01*
X540Y177D01*
X538Y177D01*
X538Y181D01*
X536Y181D01*
X536Y185D01*
X534Y185D01*
X534Y191D01*
X532Y191D01*
X532Y215D01*
X534Y215D01*
X534Y221D01*
X536Y221D01*
X536Y225D01*
X538Y225D01*
X538Y229D01*
X540Y229D01*
X540Y233D01*
X542Y233D01*
X542Y235D01*
X544Y235D01*
X544Y237D01*
X546Y237D01*
X546Y239D01*
X548Y239D01*
X548Y241D01*
X550Y241D01*
X550Y243D01*
X554Y243D01*
X554Y263D01*
X552Y263D01*
X552Y265D01*
X548Y265D01*
X548Y267D01*
X546Y267D01*
X546Y269D01*
X544Y269D01*
X544Y271D01*
X542Y271D01*
X542Y275D01*
X540Y275D01*
X540Y277D01*
X538Y277D01*
X538Y281D01*
X536Y281D01*
X536Y285D01*
X534Y285D01*
X534Y291D01*
X532Y291D01*
X532Y315D01*
X534Y315D01*
X534Y321D01*
X536Y321D01*
X536Y325D01*
X538Y325D01*
X538Y329D01*
X540Y329D01*
X540Y333D01*
X542Y333D01*
X542Y335D01*
X544Y335D01*
X544Y337D01*
X546Y337D01*
X546Y339D01*
X548Y339D01*
X548Y341D01*
X550Y341D01*
X550Y343D01*
X554Y343D01*
X554Y363D01*
X552Y363D01*
X552Y365D01*
X548Y365D01*
X548Y367D01*
X546Y367D01*
X546Y369D01*
X544Y369D01*
X544Y371D01*
X542Y371D01*
X542Y375D01*
X540Y375D01*
X540Y377D01*
X538Y377D01*
X538Y381D01*
X536Y381D01*
X536Y385D01*
X534Y385D01*
X534Y391D01*
X532Y391D01*
X532Y415D01*
X534Y415D01*
X534Y421D01*
X536Y421D01*
X536Y425D01*
X538Y425D01*
X538Y429D01*
X540Y429D01*
X540Y433D01*
X542Y433D01*
X542Y435D01*
X544Y435D01*
X544Y437D01*
X546Y437D01*
X546Y439D01*
X548Y439D01*
X548Y441D01*
X550Y441D01*
X550Y443D01*
X554Y443D01*
X554Y463D01*
X552Y463D01*
X552Y465D01*
X548Y465D01*
X548Y467D01*
X546Y467D01*
X546Y469D01*
X544Y469D01*
X544Y471D01*
X542Y471D01*
X542Y475D01*
X540Y475D01*
X540Y477D01*
X538Y477D01*
X538Y481D01*
X536Y481D01*
X536Y485D01*
X534Y485D01*
X534Y491D01*
X532Y491D01*
X532Y493D01*
X40Y493D01*
G37*
D02*
G36*
X1228Y493D02*
X1228Y489D01*
X1226Y489D01*
X1226Y483D01*
X1224Y483D01*
X1224Y479D01*
X1222Y479D01*
X1222Y477D01*
X1220Y477D01*
X1220Y473D01*
X1218Y473D01*
X1218Y471D01*
X1216Y471D01*
X1216Y469D01*
X1214Y469D01*
X1214Y467D01*
X1212Y467D01*
X1212Y465D01*
X1210Y465D01*
X1210Y463D01*
X1208Y463D01*
X1208Y443D01*
X1210Y443D01*
X1210Y441D01*
X1212Y441D01*
X1212Y439D01*
X1214Y439D01*
X1214Y437D01*
X1216Y437D01*
X1216Y435D01*
X1218Y435D01*
X1218Y433D01*
X1220Y433D01*
X1220Y431D01*
X1222Y431D01*
X1222Y427D01*
X1224Y427D01*
X1224Y423D01*
X1226Y423D01*
X1226Y417D01*
X1228Y417D01*
X1228Y409D01*
X1230Y409D01*
X1230Y399D01*
X1228Y399D01*
X1228Y389D01*
X1226Y389D01*
X1226Y383D01*
X1224Y383D01*
X1224Y379D01*
X1222Y379D01*
X1222Y377D01*
X1220Y377D01*
X1220Y373D01*
X1218Y373D01*
X1218Y371D01*
X1216Y371D01*
X1216Y369D01*
X1214Y369D01*
X1214Y367D01*
X1212Y367D01*
X1212Y365D01*
X1210Y365D01*
X1210Y363D01*
X1208Y363D01*
X1208Y343D01*
X1210Y343D01*
X1210Y341D01*
X1212Y341D01*
X1212Y339D01*
X1214Y339D01*
X1214Y337D01*
X1216Y337D01*
X1216Y335D01*
X1218Y335D01*
X1218Y333D01*
X1220Y333D01*
X1220Y331D01*
X1222Y331D01*
X1222Y327D01*
X1224Y327D01*
X1224Y323D01*
X1226Y323D01*
X1226Y317D01*
X1228Y317D01*
X1228Y309D01*
X1230Y309D01*
X1230Y299D01*
X1228Y299D01*
X1228Y289D01*
X1226Y289D01*
X1226Y283D01*
X1224Y283D01*
X1224Y279D01*
X1222Y279D01*
X1222Y277D01*
X1644Y277D01*
X1644Y275D01*
X1652Y275D01*
X1652Y273D01*
X1658Y273D01*
X1658Y271D01*
X1662Y271D01*
X1662Y269D01*
X1666Y269D01*
X1666Y267D01*
X1670Y267D01*
X1670Y265D01*
X1674Y265D01*
X1674Y263D01*
X1676Y263D01*
X1676Y261D01*
X1678Y261D01*
X1678Y259D01*
X1680Y259D01*
X1680Y257D01*
X1682Y257D01*
X1682Y255D01*
X1684Y255D01*
X1684Y253D01*
X1686Y253D01*
X1686Y251D01*
X1688Y251D01*
X1688Y249D01*
X1690Y249D01*
X1690Y245D01*
X1692Y245D01*
X1692Y241D01*
X1694Y241D01*
X1694Y237D01*
X1696Y237D01*
X1696Y233D01*
X1698Y233D01*
X1698Y227D01*
X1700Y227D01*
X1700Y219D01*
X1702Y219D01*
X1702Y197D01*
X1700Y197D01*
X1700Y187D01*
X1698Y187D01*
X1698Y183D01*
X1696Y183D01*
X1696Y177D01*
X1694Y177D01*
X1694Y173D01*
X1692Y173D01*
X1692Y171D01*
X1690Y171D01*
X1690Y167D01*
X1688Y167D01*
X1688Y165D01*
X1686Y165D01*
X1686Y163D01*
X1684Y163D01*
X1684Y161D01*
X1682Y161D01*
X1682Y159D01*
X1680Y159D01*
X1680Y157D01*
X1678Y157D01*
X1678Y155D01*
X1676Y155D01*
X1676Y153D01*
X1674Y153D01*
X1674Y151D01*
X1670Y151D01*
X1670Y149D01*
X1668Y149D01*
X1668Y147D01*
X1664Y147D01*
X1664Y145D01*
X1658Y145D01*
X1658Y143D01*
X1654Y143D01*
X1654Y141D01*
X1644Y141D01*
X1644Y139D01*
X1754Y139D01*
X1754Y493D01*
X1228Y493D01*
G37*
D02*
G36*
X608Y457D02*
X608Y443D01*
X610Y443D01*
X610Y441D01*
X612Y441D01*
X612Y439D01*
X614Y439D01*
X614Y437D01*
X616Y437D01*
X616Y435D01*
X618Y435D01*
X618Y433D01*
X620Y433D01*
X620Y431D01*
X622Y431D01*
X622Y427D01*
X624Y427D01*
X624Y423D01*
X626Y423D01*
X626Y417D01*
X628Y417D01*
X628Y409D01*
X630Y409D01*
X630Y399D01*
X628Y399D01*
X628Y389D01*
X626Y389D01*
X626Y383D01*
X624Y383D01*
X624Y379D01*
X622Y379D01*
X622Y377D01*
X620Y377D01*
X620Y373D01*
X618Y373D01*
X618Y371D01*
X616Y371D01*
X616Y369D01*
X614Y369D01*
X614Y367D01*
X612Y367D01*
X612Y365D01*
X610Y365D01*
X610Y363D01*
X608Y363D01*
X608Y359D01*
X720Y359D01*
X720Y361D01*
X712Y361D01*
X712Y363D01*
X708Y363D01*
X708Y365D01*
X706Y365D01*
X706Y367D01*
X702Y367D01*
X702Y369D01*
X700Y369D01*
X700Y371D01*
X698Y371D01*
X698Y373D01*
X696Y373D01*
X696Y375D01*
X694Y375D01*
X694Y377D01*
X692Y377D01*
X692Y379D01*
X690Y379D01*
X690Y383D01*
X688Y383D01*
X688Y387D01*
X686Y387D01*
X686Y393D01*
X684Y393D01*
X684Y401D01*
X682Y401D01*
X682Y413D01*
X684Y413D01*
X684Y421D01*
X686Y421D01*
X686Y427D01*
X688Y427D01*
X688Y431D01*
X690Y431D01*
X690Y435D01*
X692Y435D01*
X692Y437D01*
X694Y437D01*
X694Y439D01*
X696Y439D01*
X696Y441D01*
X698Y441D01*
X698Y443D01*
X700Y443D01*
X700Y445D01*
X702Y445D01*
X702Y447D01*
X704Y447D01*
X704Y449D01*
X708Y449D01*
X708Y451D01*
X712Y451D01*
X712Y453D01*
X718Y453D01*
X718Y455D01*
X730Y455D01*
X730Y457D01*
X608Y457D01*
G37*
D02*
G36*
X734Y457D02*
X734Y455D01*
X744Y455D01*
X744Y453D01*
X752Y453D01*
X752Y451D01*
X754Y451D01*
X754Y449D01*
X758Y449D01*
X758Y447D01*
X760Y447D01*
X760Y445D01*
X764Y445D01*
X764Y443D01*
X766Y443D01*
X766Y441D01*
X768Y441D01*
X768Y439D01*
X770Y439D01*
X770Y435D01*
X792Y435D01*
X792Y437D01*
X794Y437D01*
X794Y439D01*
X796Y439D01*
X796Y441D01*
X798Y441D01*
X798Y443D01*
X800Y443D01*
X800Y445D01*
X802Y445D01*
X802Y447D01*
X804Y447D01*
X804Y449D01*
X808Y449D01*
X808Y451D01*
X812Y451D01*
X812Y453D01*
X818Y453D01*
X818Y455D01*
X830Y455D01*
X830Y457D01*
X734Y457D01*
G37*
D02*
G36*
X834Y457D02*
X834Y455D01*
X844Y455D01*
X844Y453D01*
X852Y453D01*
X852Y451D01*
X854Y451D01*
X854Y449D01*
X858Y449D01*
X858Y447D01*
X860Y447D01*
X860Y445D01*
X864Y445D01*
X864Y443D01*
X866Y443D01*
X866Y441D01*
X868Y441D01*
X868Y439D01*
X870Y439D01*
X870Y435D01*
X892Y435D01*
X892Y437D01*
X894Y437D01*
X894Y439D01*
X896Y439D01*
X896Y441D01*
X898Y441D01*
X898Y443D01*
X900Y443D01*
X900Y445D01*
X902Y445D01*
X902Y447D01*
X904Y447D01*
X904Y449D01*
X908Y449D01*
X908Y451D01*
X912Y451D01*
X912Y453D01*
X918Y453D01*
X918Y455D01*
X930Y455D01*
X930Y457D01*
X834Y457D01*
G37*
D02*
G36*
X934Y457D02*
X934Y455D01*
X944Y455D01*
X944Y453D01*
X952Y453D01*
X952Y451D01*
X954Y451D01*
X954Y449D01*
X958Y449D01*
X958Y447D01*
X960Y447D01*
X960Y445D01*
X964Y445D01*
X964Y443D01*
X966Y443D01*
X966Y441D01*
X968Y441D01*
X968Y439D01*
X970Y439D01*
X970Y435D01*
X992Y435D01*
X992Y437D01*
X994Y437D01*
X994Y439D01*
X996Y439D01*
X996Y441D01*
X998Y441D01*
X998Y443D01*
X1000Y443D01*
X1000Y445D01*
X1002Y445D01*
X1002Y447D01*
X1004Y447D01*
X1004Y449D01*
X1008Y449D01*
X1008Y451D01*
X1012Y451D01*
X1012Y453D01*
X1018Y453D01*
X1018Y455D01*
X1030Y455D01*
X1030Y457D01*
X934Y457D01*
G37*
D02*
G36*
X770Y379D02*
X770Y377D01*
X768Y377D01*
X768Y373D01*
X766Y373D01*
X766Y371D01*
X764Y371D01*
X764Y369D01*
X760Y369D01*
X760Y367D01*
X758Y367D01*
X758Y365D01*
X754Y365D01*
X754Y363D01*
X750Y363D01*
X750Y361D01*
X744Y361D01*
X744Y359D01*
X820Y359D01*
X820Y361D01*
X812Y361D01*
X812Y363D01*
X808Y363D01*
X808Y365D01*
X806Y365D01*
X806Y367D01*
X802Y367D01*
X802Y369D01*
X800Y369D01*
X800Y371D01*
X798Y371D01*
X798Y373D01*
X796Y373D01*
X796Y375D01*
X794Y375D01*
X794Y377D01*
X792Y377D01*
X792Y379D01*
X770Y379D01*
G37*
D02*
G36*
X870Y379D02*
X870Y377D01*
X868Y377D01*
X868Y373D01*
X866Y373D01*
X866Y371D01*
X864Y371D01*
X864Y369D01*
X860Y369D01*
X860Y367D01*
X858Y367D01*
X858Y365D01*
X854Y365D01*
X854Y363D01*
X850Y363D01*
X850Y361D01*
X844Y361D01*
X844Y359D01*
X920Y359D01*
X920Y361D01*
X912Y361D01*
X912Y363D01*
X908Y363D01*
X908Y365D01*
X906Y365D01*
X906Y367D01*
X902Y367D01*
X902Y369D01*
X900Y369D01*
X900Y371D01*
X898Y371D01*
X898Y373D01*
X896Y373D01*
X896Y375D01*
X894Y375D01*
X894Y377D01*
X892Y377D01*
X892Y379D01*
X870Y379D01*
G37*
D02*
G36*
X970Y379D02*
X970Y377D01*
X968Y377D01*
X968Y373D01*
X966Y373D01*
X966Y371D01*
X964Y371D01*
X964Y369D01*
X960Y369D01*
X960Y367D01*
X958Y367D01*
X958Y365D01*
X954Y365D01*
X954Y363D01*
X950Y363D01*
X950Y361D01*
X944Y361D01*
X944Y359D01*
X1020Y359D01*
X1020Y361D01*
X1012Y361D01*
X1012Y363D01*
X1008Y363D01*
X1008Y365D01*
X1006Y365D01*
X1006Y367D01*
X1002Y367D01*
X1002Y369D01*
X1000Y369D01*
X1000Y371D01*
X998Y371D01*
X998Y373D01*
X996Y373D01*
X996Y375D01*
X994Y375D01*
X994Y377D01*
X992Y377D01*
X992Y379D01*
X970Y379D01*
G37*
D02*
G36*
X608Y359D02*
X608Y357D01*
X1154Y357D01*
X1154Y359D01*
X608Y359D01*
G37*
D02*
G36*
X608Y359D02*
X608Y357D01*
X1154Y357D01*
X1154Y359D01*
X608Y359D01*
G37*
D02*
G36*
X608Y359D02*
X608Y357D01*
X1154Y357D01*
X1154Y359D01*
X608Y359D01*
G37*
D02*
G36*
X608Y359D02*
X608Y357D01*
X1154Y357D01*
X1154Y359D01*
X608Y359D01*
G37*
D02*
G36*
X608Y359D02*
X608Y357D01*
X1154Y357D01*
X1154Y359D01*
X608Y359D01*
G37*
D02*
G36*
X608Y357D02*
X608Y343D01*
X610Y343D01*
X610Y341D01*
X612Y341D01*
X612Y339D01*
X614Y339D01*
X614Y337D01*
X616Y337D01*
X616Y335D01*
X618Y335D01*
X618Y333D01*
X620Y333D01*
X620Y331D01*
X622Y331D01*
X622Y327D01*
X624Y327D01*
X624Y323D01*
X626Y323D01*
X626Y317D01*
X628Y317D01*
X628Y309D01*
X630Y309D01*
X630Y299D01*
X628Y299D01*
X628Y289D01*
X626Y289D01*
X626Y283D01*
X624Y283D01*
X624Y279D01*
X622Y279D01*
X622Y277D01*
X620Y277D01*
X620Y273D01*
X618Y273D01*
X618Y271D01*
X616Y271D01*
X616Y269D01*
X614Y269D01*
X614Y267D01*
X612Y267D01*
X612Y265D01*
X610Y265D01*
X610Y263D01*
X608Y263D01*
X608Y243D01*
X610Y243D01*
X610Y241D01*
X612Y241D01*
X612Y239D01*
X614Y239D01*
X614Y237D01*
X616Y237D01*
X616Y235D01*
X618Y235D01*
X618Y233D01*
X620Y233D01*
X620Y231D01*
X622Y231D01*
X622Y227D01*
X624Y227D01*
X624Y223D01*
X626Y223D01*
X626Y217D01*
X628Y217D01*
X628Y209D01*
X630Y209D01*
X630Y199D01*
X628Y199D01*
X628Y189D01*
X626Y189D01*
X626Y183D01*
X624Y183D01*
X624Y179D01*
X622Y179D01*
X622Y177D01*
X620Y177D01*
X620Y173D01*
X618Y173D01*
X618Y171D01*
X616Y171D01*
X616Y169D01*
X614Y169D01*
X614Y167D01*
X612Y167D01*
X612Y165D01*
X610Y165D01*
X610Y163D01*
X606Y163D01*
X606Y161D01*
X602Y161D01*
X602Y159D01*
X600Y159D01*
X600Y157D01*
X592Y157D01*
X592Y155D01*
X1168Y155D01*
X1168Y157D01*
X1162Y157D01*
X1162Y159D01*
X1158Y159D01*
X1158Y161D01*
X1154Y161D01*
X1154Y163D01*
X1152Y163D01*
X1152Y165D01*
X1148Y165D01*
X1148Y167D01*
X1146Y167D01*
X1146Y169D01*
X1144Y169D01*
X1144Y171D01*
X1142Y171D01*
X1142Y175D01*
X1140Y175D01*
X1140Y177D01*
X1138Y177D01*
X1138Y181D01*
X1136Y181D01*
X1136Y185D01*
X1134Y185D01*
X1134Y191D01*
X1132Y191D01*
X1132Y215D01*
X1134Y215D01*
X1134Y221D01*
X1136Y221D01*
X1136Y225D01*
X1138Y225D01*
X1138Y229D01*
X1140Y229D01*
X1140Y233D01*
X1142Y233D01*
X1142Y235D01*
X1144Y235D01*
X1144Y237D01*
X1146Y237D01*
X1146Y239D01*
X1148Y239D01*
X1148Y241D01*
X1150Y241D01*
X1150Y243D01*
X1154Y243D01*
X1154Y263D01*
X1152Y263D01*
X1152Y265D01*
X1148Y265D01*
X1148Y267D01*
X1146Y267D01*
X1146Y269D01*
X1144Y269D01*
X1144Y271D01*
X1142Y271D01*
X1142Y275D01*
X1140Y275D01*
X1140Y277D01*
X1138Y277D01*
X1138Y281D01*
X1136Y281D01*
X1136Y285D01*
X1134Y285D01*
X1134Y291D01*
X1132Y291D01*
X1132Y315D01*
X1134Y315D01*
X1134Y321D01*
X1136Y321D01*
X1136Y325D01*
X1138Y325D01*
X1138Y329D01*
X1140Y329D01*
X1140Y333D01*
X1142Y333D01*
X1142Y335D01*
X1144Y335D01*
X1144Y337D01*
X1146Y337D01*
X1146Y339D01*
X1148Y339D01*
X1148Y341D01*
X1150Y341D01*
X1150Y343D01*
X1154Y343D01*
X1154Y357D01*
X608Y357D01*
G37*
D02*
G36*
X40Y277D02*
X40Y139D01*
X126Y139D01*
X126Y141D01*
X118Y141D01*
X118Y143D01*
X112Y143D01*
X112Y145D01*
X108Y145D01*
X108Y147D01*
X104Y147D01*
X104Y149D01*
X100Y149D01*
X100Y151D01*
X96Y151D01*
X96Y153D01*
X94Y153D01*
X94Y155D01*
X92Y155D01*
X92Y157D01*
X90Y157D01*
X90Y159D01*
X88Y159D01*
X88Y161D01*
X86Y161D01*
X86Y163D01*
X84Y163D01*
X84Y165D01*
X82Y165D01*
X82Y167D01*
X80Y167D01*
X80Y171D01*
X78Y171D01*
X78Y175D01*
X76Y175D01*
X76Y179D01*
X74Y179D01*
X74Y183D01*
X72Y183D01*
X72Y189D01*
X70Y189D01*
X70Y197D01*
X68Y197D01*
X68Y219D01*
X70Y219D01*
X70Y227D01*
X72Y227D01*
X72Y233D01*
X74Y233D01*
X74Y237D01*
X76Y237D01*
X76Y241D01*
X78Y241D01*
X78Y245D01*
X80Y245D01*
X80Y249D01*
X82Y249D01*
X82Y251D01*
X84Y251D01*
X84Y253D01*
X86Y253D01*
X86Y255D01*
X88Y255D01*
X88Y257D01*
X90Y257D01*
X90Y259D01*
X92Y259D01*
X92Y261D01*
X94Y261D01*
X94Y263D01*
X96Y263D01*
X96Y265D01*
X100Y265D01*
X100Y267D01*
X104Y267D01*
X104Y269D01*
X108Y269D01*
X108Y271D01*
X112Y271D01*
X112Y273D01*
X118Y273D01*
X118Y275D01*
X126Y275D01*
X126Y277D01*
X40Y277D01*
G37*
D02*
G36*
X1220Y277D02*
X1220Y273D01*
X1218Y273D01*
X1218Y271D01*
X1216Y271D01*
X1216Y269D01*
X1214Y269D01*
X1214Y267D01*
X1212Y267D01*
X1212Y265D01*
X1210Y265D01*
X1210Y263D01*
X1208Y263D01*
X1208Y243D01*
X1210Y243D01*
X1210Y241D01*
X1212Y241D01*
X1212Y239D01*
X1214Y239D01*
X1214Y237D01*
X1216Y237D01*
X1216Y235D01*
X1218Y235D01*
X1218Y233D01*
X1220Y233D01*
X1220Y231D01*
X1222Y231D01*
X1222Y227D01*
X1224Y227D01*
X1224Y223D01*
X1226Y223D01*
X1226Y217D01*
X1228Y217D01*
X1228Y209D01*
X1230Y209D01*
X1230Y199D01*
X1228Y199D01*
X1228Y189D01*
X1226Y189D01*
X1226Y183D01*
X1224Y183D01*
X1224Y179D01*
X1222Y179D01*
X1222Y177D01*
X1220Y177D01*
X1220Y173D01*
X1218Y173D01*
X1218Y171D01*
X1216Y171D01*
X1216Y169D01*
X1214Y169D01*
X1214Y167D01*
X1212Y167D01*
X1212Y165D01*
X1210Y165D01*
X1210Y163D01*
X1206Y163D01*
X1206Y161D01*
X1202Y161D01*
X1202Y159D01*
X1200Y159D01*
X1200Y157D01*
X1192Y157D01*
X1192Y155D01*
X1588Y155D01*
X1588Y157D01*
X1586Y157D01*
X1586Y159D01*
X1584Y159D01*
X1584Y161D01*
X1582Y161D01*
X1582Y163D01*
X1580Y163D01*
X1580Y165D01*
X1578Y165D01*
X1578Y167D01*
X1576Y167D01*
X1576Y171D01*
X1574Y171D01*
X1574Y175D01*
X1572Y175D01*
X1572Y179D01*
X1570Y179D01*
X1570Y183D01*
X1568Y183D01*
X1568Y189D01*
X1566Y189D01*
X1566Y197D01*
X1564Y197D01*
X1564Y219D01*
X1566Y219D01*
X1566Y227D01*
X1568Y227D01*
X1568Y233D01*
X1570Y233D01*
X1570Y237D01*
X1572Y237D01*
X1572Y241D01*
X1574Y241D01*
X1574Y245D01*
X1576Y245D01*
X1576Y247D01*
X1578Y247D01*
X1578Y251D01*
X1580Y251D01*
X1580Y253D01*
X1582Y253D01*
X1582Y255D01*
X1584Y255D01*
X1584Y257D01*
X1586Y257D01*
X1586Y259D01*
X1588Y259D01*
X1588Y261D01*
X1590Y261D01*
X1590Y263D01*
X1594Y263D01*
X1594Y265D01*
X1596Y265D01*
X1596Y267D01*
X1600Y267D01*
X1600Y269D01*
X1604Y269D01*
X1604Y271D01*
X1608Y271D01*
X1608Y273D01*
X1614Y273D01*
X1614Y275D01*
X1622Y275D01*
X1622Y277D01*
X1220Y277D01*
G37*
D02*
G36*
X180Y155D02*
X180Y153D01*
X1590Y153D01*
X1590Y155D01*
X180Y155D01*
G37*
D02*
G36*
X180Y155D02*
X180Y153D01*
X1590Y153D01*
X1590Y155D01*
X180Y155D01*
G37*
D02*
G36*
X180Y155D02*
X180Y153D01*
X1590Y153D01*
X1590Y155D01*
X180Y155D01*
G37*
D02*
G36*
X178Y153D02*
X178Y151D01*
X174Y151D01*
X174Y149D01*
X170Y149D01*
X170Y147D01*
X168Y147D01*
X168Y145D01*
X162Y145D01*
X162Y143D01*
X158Y143D01*
X158Y141D01*
X148Y141D01*
X148Y139D01*
X1622Y139D01*
X1622Y141D01*
X1614Y141D01*
X1614Y143D01*
X1608Y143D01*
X1608Y145D01*
X1604Y145D01*
X1604Y147D01*
X1600Y147D01*
X1600Y149D01*
X1596Y149D01*
X1596Y151D01*
X1592Y151D01*
X1592Y153D01*
X178Y153D01*
G37*
D02*
G36*
X40Y139D02*
X40Y137D01*
X1754Y137D01*
X1754Y139D01*
X40Y139D01*
G37*
D02*
G36*
X40Y139D02*
X40Y137D01*
X1754Y137D01*
X1754Y139D01*
X40Y139D01*
G37*
D02*
G36*
X40Y139D02*
X40Y137D01*
X1754Y137D01*
X1754Y139D01*
X40Y139D01*
G37*
D02*
G36*
X40Y137D02*
X40Y41D01*
X1754Y41D01*
X1754Y137D01*
X40Y137D01*
G37*
D02*
G36*
X707Y1345D02*
X752Y1345D01*
X752Y1315D01*
X707Y1315D01*
X707Y1345D01*
G37*
D02*
G36*
X707Y1277D02*
X752Y1277D01*
X752Y1245D01*
X707Y1245D01*
X707Y1277D01*
G37*
D02*
G36*
X1007Y1345D02*
X1052Y1345D01*
X1052Y1315D01*
X1007Y1315D01*
X1007Y1345D01*
G37*
D02*
G36*
X1007Y1277D02*
X1052Y1277D01*
X1052Y1245D01*
X1007Y1245D01*
X1007Y1277D01*
G37*
D02*
G36*
X1417Y893D02*
X1462Y893D01*
X1462Y861D01*
X1417Y861D01*
X1417Y893D01*
G37*
D02*
G36*
X1417Y823D02*
X1462Y823D01*
X1462Y791D01*
X1417Y791D01*
X1417Y823D01*
G37*
D02*
G36*
X1417Y597D02*
X1462Y597D01*
X1462Y567D01*
X1417Y567D01*
X1417Y597D01*
G37*
D02*
G36*
X1417Y529D02*
X1462Y529D01*
X1462Y495D01*
X1417Y495D01*
X1417Y529D01*
G37*
D02*
G36*
X97Y893D02*
X142Y893D01*
X142Y861D01*
X97Y861D01*
X97Y893D01*
G37*
D02*
G36*
X97Y823D02*
X142Y823D01*
X142Y791D01*
X97Y791D01*
X97Y823D01*
G37*
D02*
G36*
X68Y864D02*
X100Y864D01*
X100Y819D01*
X68Y819D01*
X68Y864D01*
G37*
D02*
G36*
X397Y893D02*
X442Y893D01*
X442Y861D01*
X397Y861D01*
X397Y893D01*
G37*
D02*
G36*
X397Y823D02*
X442Y823D01*
X442Y791D01*
X397Y791D01*
X397Y823D01*
G37*
D02*
G36*
X97Y597D02*
X142Y597D01*
X142Y567D01*
X97Y567D01*
X97Y597D01*
G37*
D02*
G36*
X97Y529D02*
X142Y529D01*
X142Y495D01*
X97Y495D01*
X97Y529D01*
G37*
D02*
G36*
X68Y570D02*
X100Y570D01*
X100Y525D01*
X68Y525D01*
X68Y570D01*
G37*
D02*
G36*
X397Y597D02*
X442Y597D01*
X442Y567D01*
X397Y567D01*
X397Y597D01*
G37*
D02*
G36*
X397Y529D02*
X442Y529D01*
X442Y495D01*
X397Y495D01*
X397Y529D01*
G37*
D02*
G36*
X707Y755D02*
X752Y755D01*
X752Y725D01*
X707Y725D01*
X707Y755D01*
G37*
D02*
G36*
X707Y687D02*
X752Y687D01*
X752Y653D01*
X707Y653D01*
X707Y687D01*
G37*
D02*
G36*
X1007Y755D02*
X1052Y755D01*
X1052Y725D01*
X1007Y725D01*
X1007Y755D01*
G37*
D02*
G36*
X1007Y687D02*
X1052Y687D01*
X1052Y653D01*
X1007Y653D01*
X1007Y687D01*
G37*
D02*
G36*
X707Y1051D02*
X752Y1051D01*
X752Y1019D01*
X707Y1019D01*
X707Y1051D01*
G37*
D02*
G36*
X707Y981D02*
X752Y981D01*
X752Y949D01*
X707Y949D01*
X707Y981D01*
G37*
D02*
G36*
X1007Y1051D02*
X1052Y1051D01*
X1052Y1019D01*
X1007Y1019D01*
X1007Y1051D01*
G37*
D02*
G36*
X1007Y981D02*
X1052Y981D01*
X1052Y949D01*
X1007Y949D01*
X1007Y981D01*
G37*
D02*
G36*
X1317Y1189D02*
X1362Y1189D01*
X1362Y1157D01*
X1317Y1157D01*
X1317Y1189D01*
G37*
D02*
G36*
X1317Y1119D02*
X1362Y1119D01*
X1362Y1087D01*
X1317Y1087D01*
X1317Y1119D01*
G37*
D02*
G36*
X1617Y1189D02*
X1662Y1189D01*
X1662Y1157D01*
X1617Y1157D01*
X1617Y1189D01*
G37*
D02*
G36*
X1617Y1119D02*
X1662Y1119D01*
X1662Y1087D01*
X1617Y1087D01*
X1617Y1119D01*
G37*
D02*
G36*
X1658Y1160D02*
X1690Y1160D01*
X1690Y1115D01*
X1658Y1115D01*
X1658Y1160D01*
G37*
D02*
G36*
X707Y461D02*
X752Y461D01*
X752Y429D01*
X707Y429D01*
X707Y461D01*
G37*
D02*
G36*
X707Y391D02*
X752Y391D01*
X752Y359D01*
X707Y359D01*
X707Y391D01*
G37*
D02*
G36*
X1007Y461D02*
X1052Y461D01*
X1052Y429D01*
X1007Y429D01*
X1007Y461D01*
G37*
D02*
G36*
X1007Y391D02*
X1052Y391D01*
X1052Y359D01*
X1007Y359D01*
X1007Y391D01*
G37*
D02*
G36*
X528Y328D02*
X560Y328D01*
X560Y283D01*
X528Y283D01*
X528Y328D01*
G37*
D02*
G36*
X598Y328D02*
X630Y328D01*
X630Y283D01*
X598Y283D01*
X598Y328D01*
G37*
D02*
G36*
X1196Y428D02*
X1230Y428D01*
X1230Y383D01*
X1196Y383D01*
X1196Y428D01*
G37*
D02*
G36*
X1128Y528D02*
X1158Y528D01*
X1158Y483D01*
X1128Y483D01*
X1128Y528D01*
G37*
D02*
G04 End of Copper0*
M02*