; NON-PLATED HOLES START AT T1
; THROUGH (PLATED) HOLES START AT T100
M48
INCH
T1C0.118110
T100C0.038000
%
T1
X016331Y002082
X001370Y002082
X001370Y013893
X016331Y013893
T100
X003212Y005452
X011803Y005035
X005803Y007035
X004212Y005452
X005803Y011035
X009315Y012933
X016417Y008405
X005803Y012035
X007315Y004074
X002212Y008405
X016417Y005452
X013417Y005452
X005803Y004035
X011803Y002035
X010315Y007027
X014417Y008405
X004212Y011358
X005803Y005035
X015417Y011358
X008315Y004074
X010315Y004074
X011803Y013035
X007315Y007027
X011803Y008035
X002212Y011358
X014417Y011358
X001212Y008405
X011803Y011035
X005803Y006035
X005803Y002035
X014417Y005452
X008315Y012933
X011803Y003035
X004212Y008405
X003212Y008405
X001212Y011358
X011803Y009035
X001212Y005452
X003212Y011358
X015417Y005452
X002212Y005452
X011803Y010035
X011803Y012035
X015417Y008405
X007315Y009980
X009315Y004074
X010315Y009980
X007315Y012933
X009315Y009980
X013417Y008405
X013417Y011358
X005803Y009035
X010315Y012933
X005803Y008035
X009315Y007027
X005803Y010035
X011803Y004035
X005803Y003035
X008315Y009980
X008315Y007027
X016417Y011358
X011803Y007035
X011803Y006035
X005803Y013035
T00
M30
